<?xml version="1.0" encoding="utf-8"?>
<!DOCTYPE svg PUBLIC "-//W3C//DTD SVG 1.1//EN" "http://www.w3.org/Graphics/SVG/1.1/DTD/svg11.dtd">
<svg version="1.1" id="Layer_5" xmlns="http://www.w3.org/2000/svg" xmlns:xlink="http://www.w3.org/1999/xlink" x="0px" y="0px"
	 viewBox="0 0 587.3 369.3" enable-background="new 0 0 587.3 369.3" xml:space="preserve">
<rect x="0.3" y="0.3" display="none" fill="#10204A" width="587" height="369"/>
<g>
	<g>
		<polygon fill="none" stroke="#38486D" stroke-miterlimit="10" points="282.8,171.8 282.8,162.3 285.9,152.8 288.5,152.8 
			288.5,149.8 292.8,149.8 292.8,163.3 291.8,163.3 291.8,170.3 290.8,170.4 290.8,171.8 		"/>
		<line fill="none" stroke="#38486D" stroke-miterlimit="10" x1="287.3" y1="152.8" x2="292.3" y2="152.8"/>
	</g>
	<g>
		<polygon fill="none" stroke="#38486D" stroke-miterlimit="10" points="304.8,171.8 304.8,162.3 301.6,152.8 298.8,152.8 
			298.8,149.8 294.8,149.8 294.8,163.3 295.9,163.3 295.9,170.3 296.9,170.4 296.9,171.8 		"/>
		<line fill="none" stroke="#38486D" stroke-miterlimit="10" x1="300.3" y1="152.8" x2="295.3" y2="152.8"/>
	</g>
	<line fill="none" stroke="#38486D" stroke-miterlimit="10" x1="293.3" y1="161.8" x2="295.3" y2="161.8"/>
</g>
</svg>
