<svg version="1.1" xmlns="http://www.w3.org/2000/svg" xmlns:xlink="http://www.w3.org/1999/xlink" x="0px" y="0px" viewBox="0 0 86 401.1" enable-background="new 0 0 86 401.1" xml:space="preserve">
    <g class="coordinates-img-line">
        <rect x="43" y="83.3" width="1" height="317.8"/>
    </g>
    <g class="coordinates-img-red">
        <path fill-rule="evenodd" clip-rule="evenodd" d="M43.5,22.5c-11,0-20,9-20,20c0,11,9,20,20,20s20-9,20-20 C63.5,31.5,54.5,22.5,43.5,22.5z M43.5,60C33.8,60,26,52.2,26,42.5S33.8,25,43.5,25S61,32.8,61,42.5S53.2,60,43.5,60z"/>
    </g>
    <g class="coordinates-img-bg coordinates-cursor">
        <circle fill-rule="evenodd" clip-rule="evenodd" cx="43.5" cy="42.5" r="17.5"/>
    </g>
    <g class="coordinates-img-dot coordinates-cursor">
        <circle fill-rule="evenodd" clip-rule="evenodd" cx="43.5" cy="42.5" r="2.5"/>
    </g>
    <g class="coordinates-img-blue coordinates-cursor">
        <path fill-rule="evenodd" clip-rule="evenodd" d="M43.5,12.5c-16.6,0-30,13.4-30,30c0,16.6,13.4,30,30,30 s30-13.4,30-30C73.5,25.9,60.1,12.5,43.5,12.5z M43.5,70C28.3,70,16,57.7,16,42.5C16,27.3,28.3,15,43.5,15C58.7,15,71,27.3,71,42.5 C71,57.7,58.7,70,43.5,70z"/>
    </g>
    <g class="coordinates-img-white">
        <path fill-rule="evenodd" clip-rule="evenodd" d="M43.5,0C20,0,1,19,1,42.5C1,66,20,85,43.5,85S86,66,86,42.5 C86,19,67,0,43.5,0z M43.5,82.5c-22.1,0-40-17.9-40-40c0-22.1,17.9-40,40-40c22.1,0,40,17.9,40,40C83.5,64.6,65.6,82.5,43.5,82.5z"/>
    </g>
</svg>