<?xml version="1.0" encoding="UTF-8" standalone="no"?>
<svg
   xmlns:dc="http://purl.org/dc/elements/1.1/"
   xmlns:cc="http://creativecommons.org/ns#"
   xmlns:rdf="http://www.w3.org/1999/02/22-rdf-syntax-ns#"
   xmlns:svg="http://www.w3.org/2000/svg"
   xmlns="http://www.w3.org/2000/svg"
   xmlns:sodipodi="http://sodipodi.sourceforge.net/DTD/sodipodi-0.dtd"
   xmlns:inkscape="http://www.inkscape.org/namespaces/inkscape"
   width="282.67pt"
   height="76.61pt"
   viewBox="0 0 282.67 76.61"
   version="1.1"
   id="svg170"
   sodipodi:docname="Logo_Ruscon_ENG_white.svg"
   inkscape:export-filename="C:\Users\picasso\Downloads\Logo_Ruscon_EN_white.png"
   inkscape:export-xdpi="96"
   inkscape:export-ydpi="96"
   inkscape:version="1.0.1 (3bc2e813f5, 2020-09-07)">
  <metadata
     id="metadata174">
    <rdf:RDF>
      <cc:Work
         rdf:about="">
        <dc:format>image/svg+xml</dc:format>
        <dc:type
           rdf:resource="http://purl.org/dc/dcmitype/StillImage" />
        <dc:title></dc:title>
      </cc:Work>
    </rdf:RDF>
  </metadata>
  <sodipodi:namedview
     pagecolor="#ffffff"
     bordercolor="#666666"
     borderopacity="1"
     objecttolerance="10"
     gridtolerance="10"
     guidetolerance="10"
     inkscape:pageopacity="0"
     inkscape:pageshadow="2"
     inkscape:window-width="2560"
     inkscape:window-height="1377"
     id="namedview172"
     showgrid="false"
     inkscape:zoom="2.4091696"
     inkscape:cx="188.44668"
     inkscape:cy="51.073334"
     inkscape:window-x="-8"
     inkscape:window-y="-8"
     inkscape:window-maximized="1"
     inkscape:current-layer="surface1" />
  <defs
     id="defs123">
    <clipPath
       id="clip1">
      <path
         d="M 65 4 L 282.671875 4 L 282.671875 46 L 65 46 Z M 65 4 "
         id="path93" />
    </clipPath>
    <clipPath
       id="clip2">
      <path
         d="M 65 62 L 78 62 L 78 76.609375 L 65 76.609375 Z M 65 62 "
         id="path96" />
    </clipPath>
    <clipPath
       id="clip3">
      <path
         d="M 80 62 L 88 62 L 88 76.609375 L 80 76.609375 Z M 80 62 "
         id="path99" />
    </clipPath>
    <clipPath
       id="clip4">
      <path
         d="M 90 62 L 99 62 L 99 76.609375 L 90 76.609375 Z M 90 62 "
         id="path102" />
    </clipPath>
    <clipPath
       id="clip5">
      <path
         d="M 99 62 L 115 62 L 115 76.609375 L 99 76.609375 Z M 99 62 "
         id="path105" />
    </clipPath>
    <clipPath
       id="clip6">
      <path
         d="M 121 62 L 136 62 L 136 76.609375 L 121 76.609375 Z M 121 62 "
         id="path108" />
    </clipPath>
    <clipPath
       id="clip7">
      <path
         d="M 138 62 L 150 62 L 150 76.609375 L 138 76.609375 Z M 138 62 "
         id="path111" />
    </clipPath>
    <clipPath
       id="clip8">
      <path
         d="M 150 62 L 166 62 L 166 76.609375 L 150 76.609375 Z M 150 62 "
         id="path114" />
    </clipPath>
    <clipPath
       id="clip9">
      <path
         d="M 168 62 L 181 62 L 181 76.609375 L 168 76.609375 Z M 168 62 "
         id="path117" />
    </clipPath>
    <clipPath
       id="clip10">
      <path
         d="M 183 62 L 194 62 L 194 76.609375 L 183 76.609375 Z M 183 62 "
         id="path120" />
    </clipPath>
  </defs>
  <g
     id="surface1">
    <path
       style=" stroke:none;fill-rule:nonzero;fill:rgb(92.89856%,10.998535%,14.099121%);fill-opacity:1;"
       d="M 42.082031 41.777344 L 42.082031 16.75 L 18.753906 16.75 L 18.753906 25.597656 L 30.851563 25.597656 L 30.851563 32.3125 L 11.226563 32.3125 L 11.226563 18.882813 C 11.226563 17.214844 11.226563 13.539063 12.976563 11.480469 C 14.546875 9.65625 17.175781 9.578125 19.246094 9.578125 L 41.574219 9.578125 C 43.644531 9.578125 46.289063 9.65625 47.851563 11.480469 C 49.597656 13.539063 49.597656 17.214844 49.597656 18.882813 L 49.597656 39.644531 C 49.597656 41.3125 49.597656 44.976563 47.851563 47.042969 C 46.289063 48.863281 43.644531 48.945313 41.574219 48.945313 L 19.246094 48.945313 C 17.363281 48.945313 14.671875 48.863281 13.035156 47.113281 C 11.347656 45.277344 11.226563 42.378906 11.226563 40.015625 L 11.226563 38.949219 L 18.753906 37.351563 L 18.753906 41.777344 "
       id="path125" />
    <path
       style="stroke:none;fill-rule:nonzero;fill:#ffffff;fill-opacity:1"
       d="M 7.527344 7.175781 L 7.527344 32.207031 L 30.851563 32.207031 L 30.851563 23.355469 L 18.753906 23.355469 L 18.753906 16.636719 L 38.378906 16.636719 L 38.378906 30.066406 C 38.378906 31.75 38.378906 35.398438 36.628906 37.46875 C 35.058594 39.300781 32.417969 39.378906 30.351563 39.378906 L 8.03125 39.378906 C 5.949219 39.378906 3.320313 39.300781 1.75 37.46875 C 0 35.398438 0 31.75 0 30.066406 L 0 9.320313 C 0 7.632813 0 3.96875 1.75 1.910156 C 3.320313 0.078125 5.949219 0.00390625 8.03125 0.00390625 L 30.351563 0.00390625 C 32.234375 0.00390625 34.933594 0.078125 36.5625 1.832031 C 38.246094 3.667969 38.378906 6.570313 38.378906 8.929688 L 38.378906 9.617188 L 30.898438 9.617188 L 30.851563 7.175781 "
       id="path127" />
    <g
       clip-path="url(#clip1)"
       clip-rule="nonzero"
       id="g131"
       style="fill:#ffffff">
      <path
         style="stroke:none;fill-rule:nonzero;fill:#ffffff;fill-opacity:1"
         d="M 257.804688 45.304688 L 257.804688 33.238281 C 257.804688 26.699219 257.683594 21.050781 257.390625 15.691406 L 257.621094 15.691406 C 259.527344 20.386719 262.203125 25.566406 264.585938 29.84375 L 273.144531 45.304688 L 282.667969 45.304688 L 282.667969 5.222656 L 274.335938 5.222656 L 274.335938 16.886719 C 274.335938 22.949219 274.511719 28.363281 275.042969 33.660156 L 274.933594 33.660156 C 273.089844 29.140625 270.769531 24.140625 268.398438 19.914063 L 260.054688 5.222656 L 249.480469 5.222656 L 249.480469 45.304688 Z M 224.304688 11.710938 C 230.558594 11.710938 233.953125 17.894531 233.953125 25.148438 C 233.953125 32.941406 230.445313 38.773438 224.304688 38.773438 C 218.246094 38.773438 214.554688 33.238281 214.554688 25.328125 C 214.554688 17.535156 218.132813 11.710938 224.304688 11.710938 M 224.492188 4.511719 C 212.710938 4.511719 204.980469 13.492188 204.980469 25.507813 C 204.980469 36.992188 211.996094 45.960938 223.84375 45.960938 C 235.621094 45.960938 243.527344 38.058594 243.527344 24.859375 C 243.527344 13.726563 236.808594 4.511719 224.492188 4.511719 M 201.289063 37.105469 C 199.449219 37.882813 196.476563 38.410156 193.6875 38.410156 C 185.652344 38.410156 180.886719 33.355469 180.886719 25.328125 C 180.886719 16.410156 186.484375 12.066406 193.628906 12.066406 C 196.90625 12.066406 199.449219 12.78125 201.234375 13.550781 L 203.140625 6.417969 C 201.539063 5.523438 197.96875 4.628906 193.265625 4.628906 C 181.136719 4.628906 171.375 12.183594 171.375 25.863281 C 171.375 37.28125 178.515625 45.960938 192.371094 45.960938 C 197.195313 45.960938 201 45.015625 202.605469 44.242188 Z M 139.554688 43.410156 C 141.820313 44.660156 146.335938 45.910156 150.917969 45.910156 C 161.914063 45.910156 167.03125 40.203125 167.03125 33.476563 C 167.03125 27.828125 163.765625 24.140625 156.683594 21.523438 C 151.449219 19.550781 149.242188 18.425781 149.242188 15.871094 C 149.242188 13.851563 151.15625 12.003906 155.074219 12.003906 C 158.941406 12.003906 161.863281 13.132813 163.402344 13.910156 L 165.425781 6.652344 C 163.050781 5.523438 159.785156 4.628906 155.199219 4.628906 C 145.804688 4.628906 140.027344 9.800781 140.027344 16.640625 C 140.027344 22.472656 144.429688 26.160156 151.09375 28.539063 C 155.90625 30.203125 157.820313 31.636719 157.820313 34.136719 C 157.820313 36.75 155.617188 38.476563 151.449219 38.476563 C 147.585938 38.476563 143.777344 37.222656 141.390625 35.976563 Z M 100.535156 5.222656 L 100.535156 27.59375 C 100.535156 40.316406 106.421875 45.960938 116.535156 45.960938 C 127.003906 45.960938 133.257813 40.085938 133.257813 27.707031 L 133.257813 5.222656 L 124.203125 5.222656 L 124.203125 28.242188 C 124.203125 35.378906 121.585938 38.714844 116.832031 38.714844 C 112.253906 38.714844 109.578125 35.207031 109.578125 28.242188 L 109.578125 5.222656 Z M 74.535156 12.003906 C 75.199219 11.824219 76.445313 11.710938 78.640625 11.710938 C 82.8125 11.710938 85.304688 13.613281 85.304688 17.230469 C 85.304688 20.753906 82.628906 23.007813 78.113281 23.007813 L 74.535156 23.007813 Z M 65.554688 45.304688 L 74.535156 45.304688 L 74.535156 29.550781 L 77.21875 29.550781 C 80.960938 29.609375 82.695313 30.921875 83.820313 35.976563 C 84.953125 40.914063 85.960938 44.128906 86.558594 45.304688 L 95.828125 45.304688 C 95.066406 43.773438 93.871094 38.535156 92.625 33.949219 C 91.609375 30.265625 90.066406 27.648438 87.269531 26.515625 L 87.269531 26.339844 C 90.71875 25.09375 94.347656 21.582031 94.347656 16.527344 C 94.347656 12.84375 93.039063 9.988281 90.605469 8.078125 C 87.742188 5.816406 83.578125 4.929688 77.640625 4.929688 C 72.757813 4.929688 68.464844 5.28125 65.554688 5.753906 "
         id="path129" />
    </g>
    <g
       clip-path="url(#clip2)"
       clip-rule="nonzero"
       id="g135"
       style="fill:#ffffff">
      <path
         style="stroke:none;fill-rule:nonzero;fill:#ffffff;fill-opacity:1"
         d="M 68.710938 73.65625 L 69.546875 73.65625 C 70.203125 73.65625 71.628906 73.597656 72.648438 72.738281 C 73.382813 72.132813 73.972656 70.96875 73.972656 69.464844 C 73.972656 68 73.382813 67.0625 72.851563 66.53125 C 71.832031 65.515625 70.503906 65.375 69.546875 65.375 L 68.710938 65.375 Z M 69.871094 62.726563 C 71.667969 62.726563 73.566406 62.992188 75.238281 64.597656 C 76.441406 65.761719 77.199219 67.347656 77.199219 69.464844 C 77.199219 71.597656 76.464844 73.144531 75.34375 74.265625 C 73.464844 76.160156 71.117188 76.304688 69.976563 76.304688 L 65.570313 76.304688 L 65.570313 62.726563 "
         id="path133" />
    </g>
    <g
       clip-path="url(#clip3)"
       clip-rule="nonzero"
       id="g139"
       style="fill:#ffffff">
      <path
         style="stroke:none;fill-rule:nonzero;fill:#ffffff;fill-opacity:1"
         d="M 87.757813 65.375 L 83.210938 65.375 L 83.210938 68 L 87.53125 68 L 87.53125 70.644531 L 83.210938 70.644531 L 83.210938 73.65625 L 87.757813 73.65625 L 87.757813 76.304688 L 80.066406 76.304688 L 80.066406 62.726563 L 87.757813 62.726563 "
         id="path137" />
    </g>
    <g
       clip-path="url(#clip4)"
       clip-rule="nonzero"
       id="g143"
       style="fill:#ffffff">
      <path
         style="stroke:none;fill-rule:nonzero;fill:#ffffff;fill-opacity:1"
         d="M 93.972656 62.726563 L 93.972656 73.65625 L 98.195313 73.65625 L 98.195313 76.304688 L 90.832031 76.304688 L 90.832031 62.726563 "
         id="path141" />
    </g>
    <g
       clip-path="url(#clip5)"
       clip-rule="nonzero"
       id="g147"
       style="fill:#ffffff">
      <path
         style="stroke:none;fill-rule:nonzero;fill:#ffffff;fill-opacity:1"
         d="M 103.859375 66.46875 C 103.265625 67.039063 102.652344 68.039063 102.652344 69.546875 C 102.652344 70.785156 103.058594 71.785156 103.898438 72.597656 C 104.773438 73.433594 105.753906 73.714844 106.8125 73.714844 C 108.199219 73.714844 109.183594 73.207031 109.835938 72.558594 C 110.363281 72.050781 111.019531 71.09375 111.019531 69.527344 C 111.019531 68.121094 110.445313 67.082031 109.835938 66.46875 C 109.164063 65.820313 108.078125 65.3125 106.835938 65.3125 C 105.652344 65.3125 104.589844 65.738281 103.859375 66.46875 M 112.117188 64.398438 C 113.40625 65.636719 114.242188 67.429688 114.242188 69.527344 C 114.242188 71.335938 113.589844 73.191406 112.117188 74.613281 C 110.855469 75.832031 109.140625 76.609375 106.855469 76.609375 C 104.304688 76.609375 102.570313 75.589844 101.550781 74.613281 C 100.242188 73.390625 99.429688 71.5625 99.429688 69.5625 C 99.429688 67.609375 100.308594 65.636719 101.53125 64.414063 C 102.449219 63.5 104.144531 62.421875 106.855469 62.421875 C 108.976563 62.421875 110.753906 63.074219 112.117188 64.398438 "
         id="path145" />
    </g>
    <g
       clip-path="url(#clip6)"
       clip-rule="nonzero"
       id="g151"
       style="fill:#ffffff">
      <path
         style="stroke:none;fill-rule:nonzero;fill:#ffffff;fill-opacity:1"
         d="M 128.933594 68.894531 L 135.6875 68.894531 L 135.6875 69.039063 C 135.6875 70.683594 135.09375 73.191406 133.585938 74.757813 C 132.074219 76.320313 130.339844 76.609375 128.730469 76.609375 C 127.097656 76.609375 125.339844 76.34375 123.75 74.714844 C 122.953125 73.902344 121.753906 72.25 121.753906 69.546875 C 121.753906 67.328125 122.566406 65.554688 123.710938 64.398438 C 125.382813 62.664063 127.445313 62.421875 129.054688 62.421875 C 130.179688 62.421875 131.605469 62.605469 132.871094 63.4375 C 133.789063 64.050781 134.585938 65.003906 135.074219 65.863281 L 132.238281 67.386719 C 131.972656 66.859375 131.566406 66.308594 131.035156 65.921875 C 130.421875 65.472656 129.726563 65.269531 128.953125 65.269531 C 127.707031 65.269531 126.789063 65.675781 126.140625 66.371094 C 125.382813 67.164063 124.972656 68.324219 124.972656 69.585938 C 124.972656 71.132813 125.546875 72.132813 126.117188 72.703125 C 126.910156 73.515625 127.828125 73.761719 128.871094 73.761719 C 130.21875 73.761719 130.933594 73.289063 131.238281 73.027344 C 131.339844 72.945313 131.949219 72.414063 132.21875 71.417969 L 128.933594 71.417969 "
         id="path149" />
    </g>
    <g
       clip-path="url(#clip7)"
       clip-rule="nonzero"
       id="g155"
       style="fill:#ffffff">
      <path
         style="stroke:none;fill-rule:nonzero;fill:#ffffff;fill-opacity:1"
         d="M 141.699219 68.894531 L 142.414063 68.894531 C 142.984375 68.894531 143.761719 68.832031 144.292969 68.304688 C 144.515625 68.082031 144.800781 67.652344 144.800781 66.980469 C 144.800781 66.207031 144.433594 65.800781 144.167969 65.597656 C 143.660156 65.210938 142.84375 65.167969 142.433594 65.167969 L 141.699219 65.167969 Z M 143.332031 62.726563 C 145.066406 62.726563 146.144531 63.292969 146.800781 63.910156 C 147.371094 64.457031 147.984375 65.433594 147.984375 66.941406 C 147.984375 67.792969 147.800781 68.851563 146.921875 69.707031 C 146.453125 70.15625 145.78125 70.5625 145.023438 70.75 L 149.210938 76.304688 L 145.371094 76.304688 L 141.699219 70.949219 L 141.699219 76.304688 L 138.558594 76.304688 L 138.558594 62.726563 "
         id="path153" />
    </g>
    <g
       clip-path="url(#clip8)"
       clip-rule="nonzero"
       id="g159"
       style="fill:#ffffff">
      <path
         style="stroke:none;fill-rule:nonzero;fill:#ffffff;fill-opacity:1"
         d="M 155.261719 66.46875 C 154.671875 67.039063 154.054688 68.039063 154.054688 69.546875 C 154.054688 70.785156 154.464844 71.785156 155.304688 72.597656 C 156.179688 73.433594 157.15625 73.714844 158.21875 73.714844 C 159.605469 73.714844 160.585938 73.207031 161.238281 72.558594 C 161.769531 72.050781 162.425781 71.09375 162.425781 69.527344 C 162.425781 68.121094 161.851563 67.082031 161.238281 66.46875 C 160.566406 65.820313 159.484375 65.3125 158.238281 65.3125 C 157.054688 65.3125 155.992188 65.738281 155.261719 66.46875 M 163.523438 64.398438 C 164.808594 65.636719 165.644531 67.429688 165.644531 69.527344 C 165.644531 71.335938 164.992188 73.191406 163.523438 74.613281 C 162.257813 75.832031 160.546875 76.609375 158.257813 76.609375 C 155.710938 76.609375 153.976563 75.589844 152.953125 74.613281 C 151.648438 73.390625 150.835938 71.5625 150.835938 69.5625 C 150.835938 67.609375 151.710938 65.636719 152.933594 64.414063 C 153.851563 63.5 155.546875 62.421875 158.257813 62.421875 C 160.382813 62.421875 162.15625 63.074219 163.523438 64.398438 "
         id="path157" />
    </g>
    <g
       clip-path="url(#clip9)"
       clip-rule="nonzero"
       id="g163"
       style="fill:#ffffff">
      <path
         style="stroke:none;fill-rule:nonzero;fill:#ffffff;fill-opacity:1"
         d="M 180.023438 70.765625 C 180.023438 72.070313 179.859375 73.679688 178.511719 75.0625 C 177.207031 76.402344 175.699219 76.609375 174.269531 76.609375 C 172.84375 76.609375 171.332031 76.402344 170.027344 75.0625 C 168.679688 73.679688 168.519531 72.070313 168.519531 70.765625 L 168.519531 62.726563 L 171.660156 62.726563 L 171.660156 70.683594 C 171.660156 71.273438 171.699219 72.273438 172.371094 72.964844 C 172.925781 73.554688 173.679688 73.679688 174.269531 73.679688 C 174.863281 73.679688 175.617188 73.554688 176.167969 72.964844 C 176.839844 72.273438 176.882813 71.273438 176.882813 70.683594 L 176.882813 62.726563 L 180.023438 62.726563 "
         id="path161" />
    </g>
    <g
       clip-path="url(#clip10)"
       clip-rule="nonzero"
       id="g167"
       style="fill:#ffffff">
      <path
         style="stroke:none;fill-rule:nonzero;fill:#ffffff;fill-opacity:1"
         d="M 186.667969 68.976563 L 187.789063 68.976563 C 188.21875 68.976563 188.972656 68.957031 189.484375 68.46875 C 189.769531 68.179688 189.992188 67.714844 189.992188 67.121094 C 189.992188 66.550781 189.789063 66.085938 189.484375 65.800781 C 189.011719 65.351563 188.339844 65.292969 187.730469 65.292969 L 186.667969 65.292969 Z M 188.320313 62.726563 C 189.503906 62.726563 190.8125 62.886719 191.890625 63.847656 C 193.054688 64.863281 193.21875 66.207031 193.21875 67.144531 C 193.21875 68.851563 192.5625 69.808594 192.054688 70.339844 C 190.972656 71.4375 189.546875 71.539063 188.585938 71.539063 L 186.667969 71.539063 L 186.667969 76.304688 L 183.527344 76.304688 L 183.527344 62.726563 "
         id="path165" />
    </g>
  </g>
</svg>
