<?xml version="1.0" encoding="utf-8"?>
<!-- Generator: Adobe Illustrator 17.1.0, SVG Export Plug-In . SVG Version: 6.00 Build 0)  -->
<!DOCTYPE svg PUBLIC "-//W3C//DTD SVG 1.1//EN" "http://www.w3.org/Graphics/SVG/1.1/DTD/svg11.dtd">
<svg version="1.1" id="Layer_1" xmlns="http://www.w3.org/2000/svg" xmlns:xlink="http://www.w3.org/1999/xlink" x="0px" y="0px"
	 viewBox="0 0 763.9 416.9" enable-background="new 0 0 763.9 416.9" xml:space="preserve">
<g>
	<path fill="rgba(179,189,222,0.2)" d="M650.9,416.9c-0.1-1.6-0.1-3.1,1.8-4.1c1.1-0.6,1.8-2,2.7-2.9c8.7-8.7,17.4-17.4,26.1-26.1
		c0.3-0.3,0.7-0.4,1.1-0.7c0.1,0.5,0.2,0.9,0.3,1.4c0.1,1.2-0.1,2.1-1.1,3.1c-6.2,6.1-12.1,12.4-18.5,18.2c-1.8,1.7-3.3,3.7-5.1,5.4
		c-1.9,1.8-3.6,3.8-5.3,5.8C652.3,416.9,651.6,416.9,650.9,416.9z"/>
	<path fill="rgba(179,189,222,0.2)" d="M0,239.9c1.6-1.4,3.2-2.8,4.7-4.2c0.5-0.4,0.9-1,1.4-0.1c0.3,0.6,0.9,1.7,0.7,2c-2.2,2.2-4.5,4.3-6.8,6.4
		C0,242.6,0,241.2,0,239.9z"/>
	<path fill="rgba(179,189,222,0.2)" d="M714,14c-0.2,0.3-0.4,0.7-0.7,1.1c-0.9,1-1.9,1.9-2.8,2.8C585.5,142.8,460.7,267.7,335.8,392.6
		c-0.9,0.9-1.9,1.9-2.8,2.8c-1,1.1-1.7,0.2-2.4-0.4c-0.8-0.7-0.1-1,0.3-1.4c0.8-0.8,1.6-1.7,2.5-2.5c125-125,250-250,375-375
		c1.1-1.1,2.1-2.2,3.3-3c0.4-0.3,1.3-0.1,1.9,0.1C713.7,13.1,713.8,13.6,714,14z"/>
	<path fill="rgba(179,189,222,0.2)" d="M326.6,390c-0.4-0.4-0.9-0.7-1.1-1.1c-0.1-0.3-0.1-0.8,0.1-1c0.8-0.9,1.6-1.7,2.4-2.5
		c124.5-124.5,249-249,373.5-373.5c0.7-0.7,1.5-1.3,2.1-2.1c1.2-1.7,1.8,1.2,2.8,0.3c0,0.4,0.1,0.8-0.1,1c-0.8,0.9-1.6,1.7-2.4,2.5
		C579.4,138,454.9,262.5,330.3,387c-0.8,0.8-1.6,1.7-2.5,2.5C327.5,389.7,327,389.8,326.6,390z"/>
	<path fill="rgba(179,189,222,0.2)" d="M344.3,393c-0.5-0.2-0.8-0.3-1.1-0.4c0.1-0.2,0.1-0.5,0.3-0.7c0.8-0.8,1.6-1.7,2.5-2.5
		C461.1,274.2,576.4,159,691.6,43.7c0.7-0.7,1.4-1.5,2.1-2.1c0.5-0.4,1.1-0.5,1.7-0.7c0.2,0.8,0.5,1.5,0.5,2.3
		c0,0.4-0.5,0.8-0.9,1.1c-0.8,0.8-1.6,1.7-2.5,2.5c-113,113-226,226-339,338.9c-2.4,2.4-5.1,4.5-7.7,6.7
		C345.4,392.8,344.7,392.8,344.3,393z"/>
	<path fill="rgba(179,189,222,0.2)" d="M716.1,56c-0.5,0.6-0.7,1-1,1.3c-0.8,0.8-1.6,1.7-2.5,2.5C603,169.3,493.5,278.8,383.9,388.4
		c-0.9,0.9-1.9,1.8-2.8,2.8c-0.7,0.8-1.1,0.4-1.4-0.2c-0.3-0.5-0.6-1.1-0.7-1.7c0-0.2,0.4-0.5,0.6-0.7c0.8-0.8,1.6-1.6,2.5-2.5
		c109.3-109.3,218.7-218.7,328-328c1.1-1.1,2-2.3,3.2-3.1C713.8,54.8,715,55.6,716.1,56z"/>
	<path fill="rgba(179,189,222,0.2)" d="M364.8,384c-1-0.2-1.3-0.3-1.6-0.4c0.2-0.4,0.2-0.8,0.5-1c0.8-0.9,1.6-1.7,2.5-2.5
		C475.8,270.5,585.4,161,694.9,51.4c0.9-0.9,1.9-1.8,2.8-2.8c0.6-0.8,1.1-0.5,1.4,0.1c0.3,0.5,0.6,1.1,0.7,1.7
		c0,0.2-0.4,0.5-0.6,0.7c-0.7,0.7-1.4,1.4-2.1,2.1C587.9,162.4,478.7,271.7,369.4,380.9c-0.6,0.6-1.1,1.3-1.8,1.7
		C366.6,383.3,365.5,383.7,364.8,384z"/>
	<path fill="rgba(179,189,222,0.2)" d="M388.1,394.1c-1-0.3-1.4-0.4-1.9-0.5c0.2-0.4,0.3-0.8,0.6-1.1c0.8-0.9,1.6-1.7,2.5-2.5
		C498.8,280.5,608.4,171,717.9,61.4c0.9-0.9,1.9-1.8,2.8-2.8c0.6-0.7,1-0.6,1.4,0.1c0.3,0.5,0.6,1.1,0.7,1.7c0,0.2-0.4,0.5-0.6,0.7
		c-0.9,0.9-1.9,1.9-2.8,2.8C618.4,165,517.3,266,416.2,367.1c-2,2-3.4,5-6.9,5c-1,2.9-5.1,3.2-5.4,6.7c0,0.5-0.5,1.1-1,1.6
		c-4.1,4.1-8.2,8.3-12.4,12.4C389.8,393.4,388.7,393.7,388.1,394.1z"/>
	<path fill="rgba(179,189,222,0.2)" d="M373.8,385.9c-0.9,0-1.4,0-1.9,0c0.2-0.4,0.4-0.9,0.7-1.2c0.8-0.9,1.6-1.7,2.5-2.5
		C483.2,274.1,591.2,166.1,699.3,58.1c1.3-1.3,2.2-3.5,4.7-3.1c0.6,0.1,1.2,0.3,1.8,0.4c-0.3,0.4-0.6,0.7-0.9,1.1
		c-0.8,0.8-1.6,1.7-2.5,2.5C594.5,166.8,486.6,274.7,378.6,382.7c-0.6,0.6-1.2,1.2-1.8,1.8C376,385.5,375.1,386.5,373.8,385.9z"/>
	<path fill="rgba(179,189,222,0.2)" d="M317.5,388.9c-0.3-0.3-0.6-0.5-0.7-0.8c-0.3-0.5-0.7-1.1-0.7-1.7c0-0.3,0.6-0.7,0.9-1.1
		c0.8-0.8,1.6-1.7,2.5-2.5C416.6,285.7,513.8,188.5,611,91.3c1.9-1.9,4.2-3.2,5.7-5.5c1.7-2.4,4.1-4.3,6.3-6.4c2-2,4-4,6-6
		c2-2,4-4.1,6-6c1.2-1.1,2.6-1.8,3.8-2.9c0.8-0.7,1-0.1,1.5,0.3c0.8,0.6,0.5,0.9-0.1,1.4c-0.9,0.8-1.7,1.6-2.5,2.5
		C532,174.3,426.3,280,320.6,385.7C319.6,386.8,318.5,387.8,317.5,388.9z"/>
	<path fill="rgba(179,189,222,0.2)" d="M417.1,376.4c-0.2-0.5-0.6-1.1-0.8-1.8c-0.1-0.3,0.2-0.8,0.4-1c0.8-0.9,1.6-1.7,2.5-2.5
		c98.2-98.2,196.5-196.5,294.7-294.7c0.9-0.9,1.9-1.9,2.8-2.8c0.2-0.2,0.7-0.2,1-0.3c0,0.3,0.2,0.7,0.1,0.9c-1.2,2-1.9,4.2-3.7,6
		c-97.7,97.6-195.4,195.3-293,292.9c-0.7,0.7-1.4,1.4-2.1,2.1C418.7,375.6,418.2,375.8,417.1,376.4z"/>
	<path fill="rgba(179,189,222,0.2)" d="M608.8,86.3c-0.2,0.2-0.3,0.5-0.5,0.7c-0.9,1-1.9,1.9-2.8,2.8c-95.9,95.9-191.8,191.8-287.7,287.7
		c-1.1,1.1-2,2.2-3.2,3.1c-0.3,0.3-1.4-0.3-2-0.6c-0.9-0.4-0.5-0.9,0.1-1.4c0.9-0.8,1.7-1.6,2.5-2.5c96-96,192-192,288-288
		c1.1-1.1,2.1-2.2,3.2-3.1c0.2-0.2,0.9,0,1.3,0.3C608.1,85.5,608.4,85.9,608.8,86.3z"/>
	<path fill="rgba(179,189,222,0.2)" d="M718.1,86.2c-0.3,0.6-0.8,1.6-1.4,2.4c-0.6,0.8-1.4,1.4-2.1,2.1C620,185.3,525.4,279.9,430.8,374.5
		c-0.8,0.8-1.7,1.6-2.5,2.5c-1,1.3-2.4,0.7-3.7,0.8c-0.1,0-0.4-0.7-0.3-0.8c0.9-1,1.9-1.9,2.8-2.9
		c81.5-81.5,163.1-163.1,244.6-244.6c14.8-14.8,29.7-29.7,44.5-44.5c0.4-0.4,0.9-0.6,1.4-0.8C717.8,84.7,717.9,85.1,718.1,86.2z"/>
	<path fill="rgba(179,189,222,0.2)" d="M310.5,373.8c-0.2-0.2-0.4-0.4-0.6-0.6c-0.3-0.7-0.6-1.3-0.8-2c0-0.2,0.4-0.5,0.7-0.7
		c0.8-0.8,1.6-1.6,2.5-2.5c88-88,175.9-175.9,263.9-263.9c1.4-1.4,2.5-2.9,4.5-3.6c0.8-0.3,1-0.2,1.5,0.2c0.6,0.5,0.7,0.9,0,1.5
		c-0.8,0.6-1.4,1.4-2.1,2.1C491.2,193.1,402.3,282.1,313.4,371C312.4,371.9,311.5,372.9,310.5,373.8z"/>
	<path fill="rgba(179,189,222,0.2)" d="M431.3,384.8c-0.4-0.4-0.8-0.7-1-1.1c-0.2-0.4-0.3-0.9-0.3-1.3c0-0.3,0.4-0.5,0.7-0.7
		c0.7-0.7,1.4-1.4,2.1-2.1C516,296.3,599.2,213.1,682.4,130c0.7-0.7,1.4-1.5,2.1-2.1c0.4-0.3,0.9-0.3,1.4-0.5
		c-0.9,1,1.9,1.6,0.3,2.8c-0.9,0.7-1.7,1.6-2.5,2.4c-82.9,82.9-165.9,165.9-248.8,248.8c-0.9,0.9-1.9,1.9-2.8,2.8
		C431.8,384.5,431.6,384.6,431.3,384.8z"/>
	<path fill="rgba(179,189,222,0.2)" d="M542.2,131.1c-0.5,0.5-0.8,0.8-1,1c-0.7,0.7-1.4,1.4-2.1,2.1C461.5,211.8,383.9,289.4,306.3,367
		c-1.7,1.7-3.3,3.6-5.9,3.8c-0.4,0-0.9-0.2-1.3-0.4c0.2-0.2,0.3-0.5,0.5-0.7c0.8-0.8,1.6-1.7,2.5-2.5
		c72.8-72.8,145.5-145.5,218.3-218.3c1.4-1.4,3.1-2.6,4.5-4c1.5-1.5,2.8-3.2,4.2-4.7c1.5-1.6,3.1-3.1,4.6-4.6
		c1.5-1.5,3.3-2.9,4.5-4.6c1.1-1.5,1.8-0.2,2.7-0.1C541.3,131,541.6,131,542.2,131.1z"/>
	<path fill="rgba(179,189,222,0.2)" d="M674.9,149.9c0,0.5,0.1,1.4,0,1.5c-2.1,0.6-2.7,2-3.3,4.1c-0.4,1.5-2.4,2.6-3.7,3.9c-76,76-152,152-228,228
		c-0.9,0.9-1.9,1.8-2.8,2.8c-0.7,0.8-1.1,0.4-1.4-0.2c-0.3-0.5-0.6-1.1-0.7-1.7c0-0.2,0.4-0.5,0.6-0.7c0.7-0.7,1.4-1.4,2.1-2.1
		c77.9-77.9,155.8-155.8,233.6-233.6c0.8-0.8,1.6-1.7,2.5-2.5c0.2-0.2,0.5-0.3,0.7-0.4C674.7,149.3,674.8,149.6,674.9,149.9z"/>
	<path fill="rgba(179,189,222,0.2)" d="M513.1,137.2c-0.3,0.5-0.8,1.5-1.4,2.4c-0.6,0.8-1.4,1.4-2.1,2.1C435.7,215.6,361.8,289.5,288,363.4
		c-0.9,0.9-1.9,1.8-2.8,2.8c-0.9,1-1.5,0.7-2.5-0.1c-1.2-1-0.2-1.3,0.3-1.8c0.6-0.6,1.2-1.2,1.8-1.8
		c74.9-74.9,149.9-149.9,224.8-224.8c0.6-0.6,1.1-1.2,1.8-1.8c0.4-0.3,0.9-0.5,1.4-0.8C512.8,135.7,512.9,136.2,513.1,137.2z"/>
	<path fill="rgba(179,189,222,0.2)" d="M282.2,357.7c-0.4-0.5-1.2-1.1-1.1-1.5c0.2-0.9,0.8-1.7,1.4-2.4c0.9-1,1.9-1.9,2.8-2.8
		c72.9-72.9,145.8-145.8,218.8-218.8c1.1-1.1,2-2.2,3.2-3.1c0.3-0.2,1.4,0.3,2,0.6c0.9,0.5,0.3,1-0.2,1.4c-0.7,0.7-1.4,1.4-2.1,2.1
		C433.2,207.2,359.3,281,285.4,354.9c-0.8,0.8-1.6,1.7-2.5,2.5C282.8,357.5,282.5,357.6,282.2,357.7z"/>
	<path fill="rgba(179,189,222,0.2)" d="M673.2,163.9c-0.4,0.8-0.7,1.7-1.2,2.4c-0.6,0.8-1.4,1.4-2.1,2.1C597.4,240.9,525,313.3,452.6,385.8
		c-2.6,2.6-5.9,3.7-8.6,6c-0.1,0.1-0.6-0.2-0.9-0.2c0.1-0.2,0.1-0.5,0.3-0.7c0.7-0.7,1.4-1.4,2.1-2.1
		C520.3,314,595.1,239.2,670,164.4c0.5-0.5,0.9-0.9,1.4-1.4c0.4-0.3,0.7-0.7,1.1-1C672.6,162.5,672.9,163.1,673.2,163.9z"/>
	<path fill="rgba(179,189,222,0.2)" d="M517,144.6c-0.2,0.4-0.3,0.9-0.6,1.2c-0.7,0.8-1.4,1.4-2.1,2.1c-72.9,72.9-145.9,145.9-218.8,218.8
		c-0.4,0.4-0.7,0.8-1.1,1c-0.4,0.3-0.9,0.5-1.4,0.7c-0.1,0-0.6-2.6-0.5-2.7c0.7-0.7,1.4-1.4,2.1-2.1
		c72.7-72.7,145.4-145.4,218.1-218.1c0.7-0.7,1.4-1.5,2.1-2.1c0.2-0.2,0.8-0.2,1,0C516.3,143.7,516.6,144.1,517,144.6z"/>
	<path fill="rgba(179,189,222,0.2)" d="M280.8,345.5c0.3-0.5,0.8-1.5,1.4-2.4c0.6-0.8,1.4-1.4,2.1-2.1c71.3-71.3,142.5-142.5,213.8-213.8
		c0.9-0.9,1.9-1.9,2.8-2.8c1-1.1,1.7-0.2,2.4,0.4c0.8,0.7,0.1,1-0.3,1.4c-0.7,0.7-1.4,1.4-2.1,2.1
		C428.8,200.6,356.5,272.8,284.3,345c-0.6,0.6-1.1,1.2-1.8,1.8c-0.4,0.3-0.9,0.5-1.4,0.8C281.1,347.1,281,346.6,280.8,345.5z"/>
	<path fill="rgba(179,189,222,0.2)" d="M674.1,174c-0.3,0.6-0.8,1.6-1.4,2.5c-0.6,0.8-1.4,1.4-2.1,2.1c-69,69-138,138-207,207
		c-0.8,0.8-1.6,1.7-2.5,2.4c-0.5,0.4-1.1,0.6-1.7,0.7c-0.4,0.1-1.1-0.1-1.3-0.3c-0.2-0.3-0.2-1,0-1.3c0.7-0.9,1.6-1.7,2.4-2.5
		c70.1-70.1,140.1-140.1,210.2-210.2c0.6-0.6,1.2-1.2,1.8-1.8c0.3-0.3,0.7-0.4,1.1-0.6C673.8,172.6,673.9,173,674.1,174z"/>
	<path fill="rgba(179,189,222,0.2)" d="M452.9,110.5c-0.3,0.3-0.5,0.5-0.8,0.8c-0.7,0.7-1.4,1.4-2.1,2.1C384.2,179.2,318.3,245,252.4,310.9
		c-0.9,0.9-1.8,2-2.9,2.8c-0.5,0.4-1.7,0.3-2.3-0.1c-0.9-0.6-0.2-1.4,0.4-2c0.7-0.7,1.4-1.4,2.1-2.1
		c65.9-65.9,131.7-131.7,197.6-197.6c0.8-0.8,1.5-1.9,2.5-2.4c0.5-0.3,1.5,0.2,2.3,0.4C452.5,110,452.7,110.3,452.9,110.5z"/>
	<path fill="rgba(179,189,222,0.2)" d="M456.2,117.2c-0.4,0.7-0.7,1.5-1.3,2.3c-0.5,0.7-1.2,1.2-1.7,1.8C387.5,186.8,321.9,252.4,256.3,318
		c-0.8,0.8-1.6,1.7-2.5,2.4c-0.1,0.1-0.8-0.2-0.8-0.3c0.1-1.2-0.5-2.6,0.8-3.7c0.8-0.6,1.4-1.4,2.1-2.1
		c65.5-65.5,131-131,196.4-196.4c0.6-0.6,1.2-1.2,1.8-1.8c0.4-0.4,0.9-0.8,1.4-1.2C455.7,115.6,455.9,116.2,456.2,117.2z"/>
	<path fill="rgba(179,189,222,0.2)" d="M278.8,336.6c0.3-0.6,0.8-1.6,1.4-2.4c0.5-0.7,1.2-1.2,1.7-1.8c64.2-64.2,128.4-128.4,192.5-192.5
		c0.8-0.8,1.5-1.9,2.5-2.4c0.5-0.3,1.6,0.1,2.3,0.4c1.2,0.5,0.1,0.9-0.2,1.3c-0.7,0.7-1.4,1.4-2.1,2.1
		C412.1,206.2,347.2,271.1,282.4,336c-0.6,0.6-1.1,1.2-1.8,1.8c-0.4,0.4-0.9,0.6-1.4,0.9C279.1,338.1,279,337.7,278.8,336.6z"/>
	<path fill="rgba(179,189,222,0.2)" d="M445.6,105.1c0.1,0.3,0.3,0.6,0.3,0.9c0,0.3-0.2,0.6-0.4,0.8c-0.8,0.8-1.6,1.7-2.5,2.5
		C378.2,174.2,313.2,239.1,248.3,304c-0.8,0.8-1.6,1.7-2.5,2.5c-0.1,0.1-0.8-0.1-0.8-0.1c0.1-1.4-0.6-3,1-4.1
		c0.8-0.6,1.4-1.4,2.1-2.1c63.4-63.4,126.8-126.8,190.2-190.2c2-2,4-3.7,6.6-4.6C445.2,105.3,445.4,105.2,445.6,105.1z"/>
	<path fill="rgba(179,189,222,0.2)" d="M258.5,326.8c-0.2-0.2-0.4-0.4-0.6-0.6c-0.3-0.7-0.6-1.3-0.8-2c0-0.2,0.4-0.5,0.7-0.7
		c0.7-0.7,1.4-1.4,2.1-2.1c63.2-63.2,126.3-126.3,189.5-189.5c1.7-1.7,3.2-3.7,5.8-4c0.5-0.1,0.9,0.1,1.4,0.2
		c-0.2,0.4-0.3,0.8-0.5,1c-0.7,0.7-1.4,1.4-2.1,2.1C389.8,195.5,325.6,259.7,261.4,324C260.4,324.9,259.5,325.8,258.5,326.8z"/>
	<path fill="rgba(179,189,222,0.2)" d="M275.6,331c-0.3-0.3-0.7-0.6-0.6-0.8c0.1-0.8,0.1-1.7,0.5-2.3c0.6-0.9,1.6-1.7,2.4-2.5
		c62.9-62.9,125.8-125.8,188.7-188.7c1.7-1.7,3.5-2.7,5.6-3.5c0.2-0.1,0.6,0,0.7,0.1c0.1,0.3,0.3,0.7,0.1,0.9
		c-0.5,0.7-1.1,1.3-1.6,1.8c-2.5,2.5-4.9,5-7.4,7.4c-61.4,61.4-122.7,122.7-184.1,184.1c-0.9,0.9-1.9,1.9-2.8,2.8
		C276.6,330.7,276.1,330.8,275.6,331z"/>
	<path fill="rgba(179,189,222,0.2)" d="M241.4,299.1c-0.3-0.4-0.7-0.8-0.9-1.2c-0.1-0.3-0.1-0.8,0.1-1c0.8-0.9,1.6-1.7,2.4-2.5
		c62.5-62.5,125.1-125.1,187.6-187.6c0.9-0.9,1.8-2,2.9-2.8c0.5-0.3,1.5,0.1,2.3,0.2c-0.1,0.6-0.1,1.3-0.4,1.7
		c-0.7,0.9-1.6,1.7-2.4,2.5C370.4,170.9,307.9,233.5,245.3,296c-0.8,0.8-1.6,1.7-2.5,2.5C242.5,298.7,242,298.8,241.4,299.1z"/>
	<path fill="rgba(179,189,222,0.2)" d="M21.8,307.9c0.4-0.8,0.7-1.7,1.2-2.4c0.6-0.8,1.4-1.4,2.1-2.1C83.8,244.5,142.6,185.8,201.4,127
		c0.9-0.9,1.9-1.8,2.8-2.8c0.6-0.7,1.4,2,1.8-0.3c0.2-1.2,1-1.8,2.3-2.1c0.4-0.1,0.3-1.9,0.8-2.5c1.2-1.3,2.7-2.3,4.1-3.4
		c0.6-0.5,1.4-0.7,2.1-1c1.2-0.6,1.8-2.5,3.7-2c-0.8,1-1.6,2.1-2.5,3C152.7,179.7,88.8,243.6,25,307.4c-0.5,0.5-0.9,0.9-1.4,1.4
		c-0.4,0.3-0.7,0.7-1.1,1C22.3,309.3,22.1,308.7,21.8,307.9z"/>
	<path fill="rgba(179,189,222,0.2)" d="M24.9,317.7c-0.2-0.9-0.9-2-0.6-2.5c0.6-1.1,1.8-1.9,2.7-2.9c46.9-46.9,93.7-93.7,140.6-140.6
		c15.5-15.5,31.1-31.1,46.6-46.6c0.4-0.4,0.9-0.7,1.4-1.1c0.1,0.8,0.5,1.7,0.2,2.3c-0.5,1.1-1.3,2.1-2.1,3.1
		c-0.5,0.7-1.2,1.2-1.8,1.8C150.8,192.5,89.6,253.8,28.4,315c-0.8,0.8-1.6,1.7-2.5,2.5C25.7,317.6,25.4,317.6,24.9,317.7z"/>
	<path fill="rgba(179,189,222,0.2)" d="M270.5,323.9c-0.6,0-1.1,0-1.6,0c0.2-0.4,0.4-0.9,0.7-1.2c0.7-0.7,1.4-1.4,2.1-2.1
		c60.9-60.9,121.8-121.8,182.7-182.7c0.6-0.6,1.1-1.3,1.8-1.7c0.4-0.3,0.9-2.1,1.5-0.4c0.2,0.6,2,1.6,0.3,2.7
		c-0.8,0.5-1.4,1.4-2.1,2.1C395.7,200.6,335.5,260.8,275.3,321c-0.5,0.5-1,0.9-1.4,1.4C273,323.7,271.9,324.2,270.5,323.9z"/>
	<path fill="rgba(179,189,222,0.2)" d="M658.5,201.8c0.1-0.1-0.3,0.3-0.7,0.7c-3,2.5-5.1,6.1-8.7,7.8c-0.5,0.2-0.7,1-1.1,1.5
		c-0.8,1-1.6,2.9-2.4,2.8c-2.6-0.1-3.3,2.4-5.1,3.4c-1.7,1-3.3,2.6-4,4.8c-3.2,1.3-3.5,5-5.9,7c-2.5,2.1-4.8,4.7-7.1,7
		c-50.6,50.6-101.3,101.3-151.9,151.9c-1.1,1.1-2,2.4-3.2,3.1c-1.1,0.7-2.7,0.7-4,1c-0.2-1.5,1.2-2,2-2.8
		c62.8-62.9,125.7-125.8,188.6-188.6c0.6-0.6,1.2-1.2,1.8-1.8c0.3-0.3,0.8-0.5,1.2-0.7C658.1,199.6,658.2,200.4,658.5,201.8z"/>
	<path fill="rgba(179,189,222,0.2)" d="M418.9,110.9c-0.7,0.9-1.3,1.8-2.1,2.6c-59.9,60-119.9,119.9-179.8,179.9c-1.8,1.8-3.5,2.9-6,2.4
		c0.7-0.9,1.3-1.8,2.1-2.6c60.3-60.3,120.5-120.6,180.8-180.8c0.5-0.5,1.1-0.9,1.4-1.4C416.5,109,417.7,110.2,418.9,110.9z"/>
	<path fill="rgba(179,189,222,0.2)" d="M405.9,112.9c-0.6,0.8-1.1,1.6-1.8,2.3c-59.5,59.5-118.9,119-178.4,178.4c-0.6,0.6-1.1,1.5-1.8,1.7
		c-0.7,0.2-1.6-0.1-2.3-0.4c-1.2-0.5-0.2-0.9,0.2-1.3c0.6-0.6,1.2-1.2,1.8-1.8c59.5-59.5,118.9-119,178.4-178.4c0.9-0.9,2-1.7,3-2.5
		C405.1,111.7,404.5,112.8,405.9,112.9z"/>
	<path fill="rgba(179,189,222,0.2)" d="M21,299.1c-0.9-0.3-1.4-0.4-1.8-0.6c0.2-0.4,0.4-0.8,0.7-1.1c0.8-0.8,1.6-1.7,2.5-2.5
		c58-58,115.9-115.9,173.9-173.9c0.9-0.9,1.9-1.9,2.8-2.8c0.8-0.8,1.4-0.3,2.1,0.2c0.9,0.7,0.6,1.2-0.1,1.8
		c-0.8,0.7-1.4,1.4-2.1,2.1C141.1,180.3,83.2,238.2,25.4,296c-0.6,0.6-1.1,1.3-1.8,1.7C22.7,298.4,21.7,298.8,21,299.1z"/>
	<path fill="rgba(179,189,222,0.2)" d="M14.8,292.6c0.3-0.6,0.8-1.6,1.4-2.4c0.6-0.8,1.4-1.4,2.1-2.1c56.3-56.3,112.5-112.5,168.8-168.8
		c1.1-1.1,2-2.2,3.2-3.1c0.3-0.2,1.4,0.3,2,0.7c0.9,0.5,0.2,1-0.2,1.4c-0.7,0.7-1.4,1.4-2.1,2.1C132.8,177.6,75.6,234.8,18.4,292
		c-0.6,0.6-1.1,1.2-1.8,1.8c-0.4,0.4-0.9,0.6-1.4,0.9C15.1,294.1,15,293.7,14.8,292.6z"/>
	<path fill="rgba(179,189,222,0.2)" d="M178.3,119.5c-0.4,1.1-0.5,1.9-1,2.5c-0.6,0.8-1.4,1.4-2.1,2.1c-52.7,52.7-105.3,105.3-158,158
		c-0.9,0.9-1.9,1.9-2.9,2.7c-0.1,0.1-1.3-0.5-1.3-0.8c0-0.7,0.2-1.6,0.6-2.2c0.5-0.8,1.4-1.4,2.1-2.1c52.7-52.7,105.3-105.3,158-158
		c0.9-0.9,1.9-1.9,2.9-2.7C176.9,118.8,177.6,119.2,178.3,119.5z"/>
	<path fill="rgba(179,189,222,0.2)" d="M633.1,236.2c-0.4,1.1-0.9,2.4-1.6,3.6c-0.5,0.8-1.4,1.4-2.1,2.1c-50.9,50.9-101.7,101.7-152.6,152.6
		c-0.6,0.6-1.2,1.1-1.7,1.8c-0.6,0.8-1.1,0.4-1.4-0.2c-0.3-0.5-0.7-1.1-0.7-1.7c0-0.4,0.6-0.7,1-1.1c2.1-2.1,4.2-4.2,6.4-6.4
		c49.6-49.6,99.1-99.1,148.7-148.7c0.9-0.9,1.9-1.9,2.8-2.8c0.2-0.2,0.5-0.3,0.7-0.5C632.7,235.3,632.8,235.6,633.1,236.2z"/>
	<path fill="rgba(179,189,222,0.2)" d="M166.3,109.5c-0.4,1.1-0.5,1.9-0.9,2.5c-0.6,0.8-1.4,1.4-2.1,2.1c-51.3,51.3-102.7,102.7-154,154
		c-0.7,0.7-1.4,1.4-2.1,2.1c-0.2,0.2-1,0.3-1,0.2c-0.3-0.8-0.9-1.7-0.7-2.4c0.2-0.7,1.1-1.2,1.7-1.8c12.4-12.4,24.7-24.7,37.1-37.1
		c2.9-2.9,6.4-5.2,8.9-8.7c2.5-3.4,6-6.2,9.1-9.3c3.1-3.1,6.1-6.1,9.2-9.2c3.1-3.1,6.1-6.1,9.2-9.2c3.1-3.1,6.1-6.1,9.2-9.2
		c3.1-3.1,6.1-6.1,9.2-9.2c3.1-3.1,6.1-6.1,9.2-9.2c3.1-3.1,6.1-6.1,9.2-9.2c3.1-3.1,6.1-6.1,9.2-9.2c3.1-3.1,6.1-6.1,9.2-9.2
		c8.8-8.8,17.7-17.7,26.5-26.5c0.8-0.8,1.6-1.7,2.5-2.4C164.9,108.8,165.6,109.2,166.3,109.5z"/>
	<path fill="rgba(179,189,222,0.2)" d="M9.6,279c-0.4-0.4-0.7-0.6-0.9-0.9c-0.3-0.5-0.7-1.1-0.7-1.7c0-0.4,0.6-0.7,1-1.1c0.9-0.9,1.9-1.9,2.8-2.8
		C62,222.4,112.2,172.2,162.3,122.1c0.8-0.8,1.6-1.6,2.5-2.5c0.1-0.1,2.8,0.3,2.7,0.4c0,0.4,0,0.8-0.2,1c-0.7,0.8-1.4,1.4-2.1,2.1
		c-51,51-102,102-152.9,153C11.4,277,10.5,278.1,9.6,279z"/>
	<path fill="rgba(179,189,222,0.2)" d="M50.3,216.1c-0.4-1.3-0.8-2.2-0.8-3.1c0-0.5,0.9-0.9,1.3-1.4c49.4-49.4,98.9-98.9,148.3-148.3
		c0.9-0.9,2-1.7,3.1-2.2c0.4-0.2,1.2,0.2,1.7,0.5c0.1,0.1-0.1,0.9-0.4,1.3c-0.6,0.8-1.4,1.4-2.1,2.1
		c-49.6,49.6-99.1,99.1-148.7,148.7C52,214.4,51.3,215.1,50.3,216.1z"/>
	<path fill="rgba(179,189,222,0.2)" d="M632,248.4c-0.8,1.3-1.7,3-2.7,4.5c-0.7,0.9-1.6,1.7-2.4,2.5C580.3,302,533.8,348.5,487.3,395
		c-0.9,0.9-1.8,2-2.9,2.7c-0.5,0.3-1.5-0.2-2.3-0.3c0.1-0.6,0.1-1.2,0.5-1.7c0.5-0.7,1.1-1.2,1.7-1.8
		c48.4-48.4,96.8-96.8,145.3-145.3c0.5-0.5,0.9-1,1.4-1.4c0.2-0.1,0.5-0.2,0.7-0.2C631.8,247.4,631.8,247.7,632,248.4z"/>
	<path fill="rgba(179,189,222,0.2)" d="M49.6,205.6c-2.8-1-2.8-1-1.5-2.3c15.7-15.7,31.3-31.3,47-47c32.6-32.6,65.2-65.3,97.9-97.8
		c0.5-0.5,0.7-2.1,2.1-0.9c1.2,1,1.1,1.8,0,2.8c-0.8,0.6-1.4,1.4-2.1,2.1c-46.9,46.9-93.8,93.8-140.6,140.6
		c-0.8,0.8-1.6,1.7-2.5,2.5C49.7,205.7,49.3,205.7,49.6,205.6z"/>
	<path fill="rgba(179,189,222,0.2)" d="M137.7,293c-0.2-0.3-0.7-0.6-0.7-0.9c-0.1-0.6-0.1-1.4,0.2-1.9c0.5-0.8,1.4-1.4,2.1-2.1
		c47.5-47.5,94.9-94.9,142.4-142.4c0.4-0.4,0.8-0.7,1-1.1c0.5-0.7,1-0.7,1.4,0c0.3,0.5,0.6,1.1,0.8,1.7c0,0.2-0.4,0.5-0.6,0.7
		c-0.8,0.8-1.6,1.7-2.5,2.5c-46.7,46.7-93.5,93.5-140.2,140.2c-0.9,0.9-1.9,1.9-2.8,2.8C138.6,292.7,138.2,292.8,137.7,293z"/>
	<path fill="rgba(179,189,222,0.2)" d="M204.4,291c-0.4-0.2-0.9-0.3-1.3-0.5c0.3-0.4,0.5-0.7,0.8-1.1c0.7-0.7,1.4-1.4,2.1-2.1
		c46.9-46.9,93.7-93.7,140.6-140.6c0.9-0.9,1.8-2,2.9-2.8c0.2-0.2,1.1,0.3,1.6,0.7c0.5,0.3,1,0.8,0.2,1.4c-0.6,0.5-1.2,1.2-1.8,1.8
		c-46.9,46.9-93.7,93.7-140.6,140.6C207.7,289.6,206.7,291.5,204.4,291z"/>
	<path fill="rgba(179,189,222,0.2)" d="M339,144.8c0.7,0.1,1.2,0.2,1.7,0.3c-0.3,0.5-0.4,1-0.8,1.4c-34.9,34.9-69.7,69.8-104.6,104.6
		c-12.3,12.3-24.5,24.5-36.7,36.8c-1,1-1.4,0.7-2.2,0c-0.5-0.4-2,0.2-0.7-1.2c0.9-1,1.9-1.9,2.8-2.8
		c37.7-37.7,75.4-75.4,113.1-113.1c6.8-6.8,13.7-13.7,20.5-20.5c0.9-0.9,2-1.8,2.8-2.9c0.6-0.8,2.6-0.1,2.2-2
		C337,145.4,338.4,145,339,144.8z"/>
	<path fill="rgba(179,189,222,0.2)" d="M356.1,151c-0.2,0.7-0.3,1.4-0.7,1.8c-0.7,0.9-1.6,1.7-2.4,2.5c-44.9,44.9-89.8,89.8-134.7,134.7
		c-0.8,0.8-1.5,1.9-2.5,2.4c-1.3,0.7-2.9,1-4.4,1.5c-0.4-1.8,1.4-2.3,2.2-3.1c46-46.1,92.1-92.2,138.2-138.3
		c0.8-0.8,1.6-1.7,2.5-2.5c0.2-0.2,0.7-0.2,0.9-0.1C355.6,150.2,355.8,150.6,356.1,151z"/>
	<path fill="rgba(179,189,222,0.2)" d="M289.7,152.5c0,0-0.2,0.3-0.5,0.6c-0.7,0.7-1.4,1.4-2.1,2.1c-45.2,45.2-90.5,90.5-135.7,135.7
		c-0.8,0.8-1.6,1.6-2.5,2.5c-0.8,0.8-1.4,0.4-2.1-0.2c-0.9-0.7-0.7-1.2,0-1.8c0.6-0.5,1.2-1.2,1.8-1.8
		c45.7-45.7,91.4-91.4,137.1-137.1c0.6-0.6,1.2-1.2,1.8-1.8c0.3-0.3,0.7-0.5,1.1-0.8C288.9,150.7,289.2,151.5,289.7,152.5z"/>
	<path fill="rgba(179,189,222,0.2)" d="M188.5,284.9c-0.6,0-1.1,0-1.6,0c0.2-0.4,0.4-0.9,0.7-1.2c0.5-0.6,1.2-1.2,1.8-1.8
		c44.8-44.8,89.5-89.5,134.3-134.3c1.6-1.6,3.4-2.9,5.2-4.2c0.5-0.3,1.2-0.4,1.8-0.5c0.3,0,0.6,0.1,0.9,0.2
		c-0.1,0.2-0.1,0.5-0.2,0.7c-0.7,0.7-1.4,1.4-2.1,2.1c-45.5,45.5-91,91-136.4,136.4C191.7,283.6,190.7,285.5,188.5,284.9z"/>
	<path fill="rgba(179,189,222,0.2)" d="M154.9,298.8c-1.2-0.5-1.9-0.8-2.6-1.1c0.2-0.5,0.4-1,0.7-1.4c45.6-45.6,91.2-91.2,136.8-136.8
		c0.2-0.2,0.5-0.5,0.7-0.7c0.6-0.7,1-1.1,1.8-0.1c0.6,0.7,1.1,1.3,0.3,2.1c-0.7,0.7-1.4,1.4-2.1,2.1
		c-44.5,44.5-89.1,89.1-133.6,133.6C156.1,297.3,155.4,298.2,154.9,298.8z"/>
	<path fill="rgba(179,189,222,0.2)" d="M271.2,148.4c-0.2,0.6-0.3,1.1-0.6,1.4c-0.8,0.9-1.6,1.7-2.5,2.5c-44.3,44.3-88.5,88.5-132.8,132.8
		c-0.7,0.7-1.4,1.5-2.1,2.1c-0.5,0.4-1.1,0.5-1.7,0.7c-0.2-0.8-0.5-1.5-0.5-2.3c0-0.4,0.5-0.8,0.9-1.1c0.8-0.8,1.6-1.7,2.5-2.5
		c43.9-43.9,87.8-87.8,131.7-131.7c0.9-0.9,1.9-1.9,2.8-2.8c0.2-0.2,0.7-0.2,1-0.1C270.4,147.6,270.7,148,271.2,148.4z"/>
	<path fill="rgba(179,189,222,0.2)" d="M296.2,166.9c-0.4,0.7-0.8,1.7-1.4,2.6c-0.5,0.7-1.2,1.2-1.7,1.8c-43.9,43.9-87.8,87.8-131.7,131.7
		c-0.8,0.8-1.7,1.6-2.5,2.5c-0.8,0.8-1.4,0.5-2.1-0.2c-0.8-0.7-0.8-1.1,0-1.8c0.7-0.5,1.2-1.2,1.8-1.7
		c44.7-44.7,89.5-89.5,134.2-134.2c0.6-0.6,1.2-1.2,1.8-1.8c0.3-0.3,0.7-0.5,1.1-0.7C295.8,165.5,295.9,166,296.2,166.9z"/>
	<path fill="rgba(179,189,222,0.2)" d="M96,269.1c-0.3-1.3-0.9-2.2-0.7-2.9c0.2-0.7,1.1-1.2,1.7-1.8c44.1-44.1,88.3-88.3,132.5-132.4
		c1.1-1.1,2.5-2,3.8-2.8c0.6-0.3,1.5-0.1,2.3-0.2c-0.3,0.6-0.6,1.3-1,1.8c-24.7,24.7-49.4,49.5-74.2,74.2
		c-17.5,17.5-35.1,35.1-52.6,52.6c-1.8,1.8-3.9,3.3-5.7,5.1c-1.7,1.7-3.2,3.7-4.8,5.5C97,268.4,96.6,268.6,96,269.1z"/>
	<path fill="rgba(179,189,222,0.2)" d="M263.1,143.9c0.9,0,1.4,0,1.9,0c-0.2,0.4-0.4,0.9-0.7,1.2c-0.5,0.6-1.2,1.2-1.8,1.8
		c-42.8,42.8-85.7,85.7-128.5,128.5c-0.7,0.7-1.4,1.4-2.1,2.1c-0.1,0.1-0.8-0.2-0.8-0.4c0-1.4-0.4-3,1.2-4c0.6-0.3,1-0.9,1.4-1.4
		c41.8-41.8,83.6-83.6,125.4-125.3C260.2,145.2,261,143,263.1,143.9z"/>
	<path fill="rgba(179,189,222,0.2)" d="M120.8,263.7c0.4-0.7,0.8-1.5,1.3-2.3c0.4-0.5,0.9-1,1.4-1.4c41.8-41.8,83.6-83.6,125.4-125.4
		c0.8-0.8,1.5-1.8,2.5-2.4c0.6-0.3,1.8-0.3,2.3,0.1c0.9,0.7,0.2,1.4-0.5,2c-0.6,0.6-1.2,1.2-1.8,1.8
		c-42.4,42.4-84.8,84.8-127.2,127.2c-0.5,0.5-0.9,1-1.4,1.4c-0.5,0.4-0.9,0.8-1.4,1.2C121.2,265.2,121,264.6,120.8,263.7z"/>
	<path fill="rgba(179,189,222,0.2)" d="M112.1,263.1c-0.4-0.3-0.9-0.5-1.1-0.8c-0.1-0.2-0.1-0.7,0.1-0.9c0.5-0.6,1.2-1.2,1.7-1.8
		c42.6-42.6,85.3-85.3,127.9-127.9c0.4-0.4,0.8-0.7,1-1.1c0.6-0.8,1.1-0.4,1.4,0.1c0.3,0.5,0.9,1.4,0.7,1.6
		c-0.6,0.9-1.6,1.7-2.4,2.5c-11.3,11.3-22.6,22.6-33.9,33.9c-30.3,30.3-60.5,60.5-90.8,90.8c-0.9,0.9-1.8,1.9-2.9,2.8
		C113.5,262.8,112.8,262.8,112.1,263.1z"/>
	<path fill="rgba(179,189,222,0.2)" d="M94.9,259.5c-1.3-0.3-1.8-0.5-2.4-0.6c0.2-0.5,0.2-1,0.5-1.4c0.8-0.9,1.6-1.7,2.5-2.5
		c40.6-40.6,81.3-81.3,121.9-121.9c1.7-1.7,3.7-3.1,5.6-4.6c0.6-0.4,1.5-0.4,2.2-0.6c0.1,0,0.4,0.1,0.4,0.1c0.1,0.2,0.1,0.5,0,0.7
		c-0.3,0.4-0.7,0.7-1,1.1c-42.9,42.9-85.8,85.8-128.6,128.6C95.4,259,94.9,259.5,94.9,259.5z"/>
	<path fill="rgba(179,189,222,0.2)" d="M126.8,268.8c0.3-0.6,0.8-1.6,1.4-2.5c0.4-0.5,0.9-1,1.4-1.4c41.1-41.1,82.2-82.2,123.3-123.3
		c0.6-0.6,1.2-1.1,1.8-1.8c0.6-0.8,1.1-0.9,1.8,0c0.6,0.7,0.9,1.3,0.2,2.1c-0.7,0.7-1.4,1.4-2.1,2.1
		c-41.4,41.4-82.9,82.9-124.3,124.3c-0.6,0.6-1.2,1.2-1.8,1.8c-0.3,0.3-0.7,0.4-1,0.6C127.1,270.2,127,269.7,126.8,268.8z"/>
	<path fill="rgba(179,189,222,0.2)" d="M173,68.6c0.9,0.3,1.4,0.5,1.8,0.6c-0.2,0.4-0.4,0.7-0.7,1.1c-0.6,0.6-1.2,1.2-1.8,1.8
		c-41.7,41.7-83.4,83.4-125.1,125.1c-0.6,0.6-1.1,1.2-1.8,1.7c-0.4,0.3-0.9,0.4-1.4,0.5c0.9-1-1.9-1.6-0.3-2.8
		c0.5-0.4,1-0.9,1.4-1.4c30.6-30.6,61.2-61.3,92-91.8c3.8-3.7,7.3-7.7,11.1-11.3c3.8-3.7,7.5-7.6,11.3-11.3c1.3-1.3,2.3-3.5,4.8-2.9
		c1.2-1.5,2.8-2.8,3.4-4.5c0.5-1.6,1.7-2.4,2.7-3.4C171.2,69.3,172.3,69,173,68.6z"/>
	<path fill="rgba(179,189,222,0.2)" d="M130.8,101.8c-0.1,0.6-0.1,0.9-0.2,1c-0.3,0.4-0.7,0.7-1,1.1c-27.2,27.2-54.4,54.4-81.6,81.6
		c-0.4,0.4-0.7,2.1-2.1,0.8c-1.2-1.1-1-1.9,0.1-2.8c0.6-0.5,1.2-1.2,1.8-1.8c26-26,52-52,78.1-78.1c0.8-0.8,1.5-1.9,2.5-2.4
		C128.9,100.9,129.9,101.5,130.8,101.8z"/>
	<path fill="rgba(179,189,222,0.2)" d="M681,278.5c-0.4,0.3-0.8,0.6-1.1,0.9c-25.6,25.6-51.3,51.3-76.9,76.9c-0.5,0.5-0.9,1.3-1.4,1.3
		c-0.6,0.1-1.4-0.4-2-0.8c-1-0.6-0.1-1,0.3-1.4c0.8-0.8,1.6-1.7,2.5-2.5c20.6-20.6,41.1-41.2,61.8-61.7c1.2-1.1,1.7-4,4.5-2.7
		c1-4.9,5.7-6.9,8.5-10.5c0.4-0.5,0.9-1.2,1.4-1.3c0.5-0.1,1.1,0.4,1.7,0.7C680.4,277.8,680.6,278.1,681,278.5z"/>
	<path fill="rgba(179,189,222,0.2)" d="M609.2,359c-0.4-0.2-0.8-0.4-1.2-0.6c0.2-0.2,0.4-0.5,0.7-0.7c2.7-2.7,5.4-5.4,8.1-8.1
		c21.4-21.4,42.8-42.9,64.3-64.2c0.5-0.4,0.7-2.1,2.1-0.7c1.2,1.2,0.8,1.9-0.2,2.8c-3.2,2.7-5.6,6.4-9.4,8.6
		c-1.1,0.6-1.6,2.3-2.6,3.3c-19.2,19.2-38.4,38.4-57.5,57.6C612.2,358.1,611.2,359.5,609.2,359z"/>
	<path fill="rgba(179,189,222,0.2)" d="M629.1,263.1c-0.3,0.6-0.8,1.5-1.4,2.4c-0.2,0.3-0.5,0.5-0.7,0.7c-22.7,22.7-45.4,45.4-68.1,68.2
		c-1.1,1.1-1.8,1.3-3,0.4c-0.3-0.2-1.7,0.4-0.6-0.9c0.3-0.4,0.7-0.7,1.1-1.1c23.5-23.5,47.1-47.1,70.6-70.6c0.1-0.1,0.2-0.3,0.4-0.3
		c0.5-0.3,0.9-0.6,1.4-0.9C628.8,261.6,628.9,262.1,629.1,263.1z"/>
	<path fill="rgba(179,189,222,0.2)" d="M120.9,100.8c-0.2,0.6-0.2,0.8-0.3,1c-0.6,0.6-1.2,1.2-1.8,1.8c-22,22-44,44-66,66c-0.5,0.5-1,0.9-1.4,1.4
		c-0.7,0.9-1.1,0.7-1.8,0c-0.6-0.7-0.9-1.3-0.1-2.1c0.6-0.6,1.2-1.2,1.8-1.8c21.7-21.7,43.3-43.3,65-65c0.7-0.7,1.3-1.7,2.2-2
		C119,100,120,100.6,120.9,100.8z"/>
	<path fill="rgba(179,189,222,0.2)" d="M594.7,350.6c0.4-0.7,0.8-1.5,1.3-2.3c0.4-0.5,0.9-1,1.4-1.4c21.2-21.2,42.4-42.4,63.6-63.6
		c0.6-0.6,1.1-1.3,1.8-1.7c0.3-0.2,0.5-1.6,1.2-0.2c0.3,0.7,0.8,1.4,0.9,2.1c0,0.3-0.6,0.7-1,1c-22.5,22.5-45,45-67.5,67.4
		c-0.3,0.3-0.7,0.5-1.1,0.8C595.1,352.1,595,351.5,594.7,350.6z"/>
	<path fill="rgba(179,189,222,0.2)" d="M657.3,280.8c-0.6,0.3-1.2,0.4-1.7,0.9c-7.9,7.9-15.8,15.7-23.6,23.6c-12.7,12.7-25.4,25.4-38.1,38.1
		c-0.7,0.7-1.4,1.4-2.1,2.1c-0.8,0.8-1.4,0.4-2.1-0.2c-0.9-0.7-0.7-1.2,0.1-1.8c0.6-0.5,1.2-1.2,1.8-1.8
		c20.1-20.1,40.2-40.2,60.3-60.3c0.8-0.8,1.6-1.7,2.5-2.4c0.2-0.2,0.9,0,1.3,0.2C656.1,279.4,656.4,279.9,657.3,280.8z"/>
	<path fill="rgba(179,189,222,0.2)" d="M703,2.7c-0.1,0.3-0.2,0.7-0.5,1.1c-0.3,0.4-0.7,0.7-1,1.1c-19.3,19.3-38.6,38.6-57.9,57.8
		c-0.3,0.3-0.9,2-1.5,0.5c-0.2-0.6-2.1-1.7-0.3-2.7c0.1-0.1,0.2-0.2,0.4-0.3c19.5-19.5,39-39,58.6-58.6c0.3-0.3,1.1-0.7,1.1-0.7
		C702.3,1.4,702.5,2,703,2.7z"/>
	<path fill="rgba(179,189,222,0.2)" d="M569.3,333c-0.4-0.2-0.9-0.3-1.3-0.5c0.3-0.4,0.5-0.7,0.9-1.1c18.6-18.6,37.2-37.2,55.8-55.8
		c0.3-0.3,0.8-0.5,1.2-0.7c-0.1,0.6,0,1.5-0.4,1.8c-1.1,0.9,0.5,1.3,0.2,1.8c-0.4,0.7-1.1,1.2-1.7,1.8
		c-16.8,16.8-33.7,33.7-50.5,50.5C572.4,331.9,571.5,333.7,569.3,333z"/>
	<path fill="rgba(179,189,222,0.2)" d="M640.1,285.1c-0.2,0.6-0.3,1.3-0.7,1.8c-0.5,0.7-1.1,1.2-1.7,1.8c-16.3,16.3-32.7,32.7-49,49
		c-0.7,0.7-1.3,1.6-2.2,2c-0.5,0.2-1.4-0.3-2-0.7c-0.9-0.6-0.2-1,0.2-1.4c6.9-6.9,13.9-13.9,20.8-20.8c10.3-10.3,20.7-20.7,31-31
		c0.6-0.6,1.1-1.2,1.8-1.7c0.2-0.2,0.7-0.2,0.9-0.1C639.6,284.2,639.8,284.6,640.1,285.1z"/>
	<path fill="rgba(179,189,222,0.2)" d="M620.3,360.7c-0.5-0.9-0.9-1.4-1.1-2.1c-0.1-0.3,0.2-0.8,0.5-1c5.6-5.7,11.3-11.3,17-17
		c11.9-11.9,23.8-23.8,35.7-35.7c0.3-0.3,0.9-0.5,1.4-0.7c0.1,0,0.6,2.6,0.5,2.7c-0.4,0.4-0.7,0.7-1.1,1.1
		c-16.6,16.6-33.2,33.2-49.8,49.8C622.6,358.7,621.7,359.4,620.3,360.7z"/>
	<path fill="rgba(179,189,222,0.2)" d="M680.3,312.7c-0.7,0.4-1.4,0.7-2,1.3c-14.4,14.3-28.7,28.7-43.1,43.1c-2,2-4,4-6,6
		c-0.3,0.3-0.8,0.8-1.2,0.7c-0.6-0.1-1.1-0.6-1.6-1c-0.2-0.2-0.1-0.7,0.1-1c0.3-0.4,0.7-0.7,1-1.1c16-16,32-32,48-48
		c0.6-0.6,1.1-1.3,1.8-1.7c0.3-0.2,0.9,0,1.3,0.2C679.1,311.4,679.4,311.9,680.3,312.7z"/>
	<path fill="rgba(179,189,222,0.2)" d="M545.2,344.1c1.1,0.5,1.8,0.8,2.6,1.1c-0.2,0.4-0.4,0.8-0.7,1.1c-15,15.1-30.1,30.1-45.1,45.2
		c-1.5,1.6-3.7,1-5.1,2.4c-0.2,0.2-0.6,0-1,0c0.1-0.3,0.2-0.6,0.4-0.8c0.3-0.4,0.7-0.7,1-1.1c15.5-15.5,31-31,46.6-46.6
		C544.4,344.9,544.9,344.4,545.2,344.1z"/>
	<path fill="rgba(179,189,222,0.2)" d="M626,286.9c0.9,0,1.4,0,1.9,0c-0.2,0.4-0.4,0.9-0.7,1.2c-15.1,15.2-30.3,30.3-45.5,45.5
		c-0.5,0.5-0.9,1.1-1.5,1.3c-0.5,0.1-1.1-0.4-1.6-0.7c-0.7-0.4-0.7-0.8-0.1-1.4c6.1-6.1,12.2-12.2,18.3-18.3
		c8.6-8.6,17.1-17.2,25.7-25.7C623.7,287.6,624.5,286,626,286.9z"/>
	<path fill="rgba(179,189,222,0.2)" d="M683.2,318.4c-0.4,1.1-0.5,1.9-0.9,2.5c-0.6,0.8-1.4,1.4-2.1,2.1c-7.8,7.8-15.5,15.6-23.3,23.2
		c-1.5,1.5-2.6,3.8-5.5,3.7c-0.9,0-2.3,1.6-2.7,2.7c-1.1,2.9-2.5,5.4-5.7,6.5c-1.5,3.7-5.1,5.5-7.4,8.4c-0.3,0.4-0.7,1-1,1
		c-0.7-0.1-1.4-0.5-2-0.8c-1.1-0.6-0.1-1,0.3-1.3c15.9-15.9,31.7-31.8,47.6-47.6c0.3-0.3,0.7-0.9,1.1-1
		C682,317.9,682.5,318.2,683.2,318.4z"/>
	<path fill="rgba(179,189,222,0.2)" d="M677,15.8c0.7,0.1,1.1,0.2,1.6,0.3c-0.3,0.5-0.4,1-0.8,1.4c-14.2,14.2-28.4,28.5-42.7,42.7
		c-0.2,0.2-0.6,1.7-1.2,0.2c-0.3-0.8-0.5-1.6-0.6-2.4c0-0.3,0.6-0.7,1-1.1c11.6-11.6,23.4-23.2,34.9-35c1.8-1.9,5.2-2.2,5.8-5.5
		C675.1,16.1,676.4,16,677,15.8z"/>
	<path fill="rgba(179,189,222,0.2)" d="M687,358.5c0.5,1.9-0.9,2.7-1.9,3.7c-9.8,9.8-19.5,19.5-29.3,29.3c-1.9,1.9-3.8,3.7-5.6,5.7
		c-0.6,0.6-1,0.7-1.4,0c-0.3-0.5-0.8-1.2-0.7-1.6c0.1-0.6,0.8-1,1.2-1.5c12.1-12.1,24.2-24.2,36.4-36.3c0.3-0.3,0.7-0.4,1-0.6
		C686.8,357.6,686.9,358,687,358.5z"/>
	<path fill="rgba(179,189,222,0.2)" d="M301.9,85.5c-0.3,0.3-0.5,0.5-0.7,0.7c-11.3,11.3-22.5,22.5-33.8,33.8c-0.8,0.8-1.1,0.7-1.8,0
		c-0.6-0.7-0.9-1.3-0.1-2.1c0.8-0.8,1.6-1.6,2.5-2.5c6.8-6.8,13.6-13.6,20.4-20.4c1.3-1.3,2.5-2.6,3.9-3.9c1-0.9,2.3-1.6,3.4-2.4
		c0.9-0.7,2.2-1.6,2.3-2.5c0.4-2.8,2.5-0.7,3.5-1.3C301.4,84.9,301.7,85.3,301.9,85.5z"/>
	<path fill="rgba(179,189,222,0.2)" d="M0.8,262.8c0.4-0.7,0.6-1.7,1.2-2.3c7.8-7.9,15.6-15.8,23.7-23.6c1.2-1.1,2.3-2.3,3.4-3.5
		c1.2-1.4,2.6-2.6,3.8-3.9c1-1,1.7-0.6,2.4,0.3c0.2,0.3,0.3,0.7,0.2,1c-0.1,0.3-0.4,0.5-0.7,0.7c-10.8,10.8-21.6,21.6-32.4,32.4
		c-0.3,0.3-0.7,0.6-1.1,0.9C1.2,264.2,1,263.6,0.8,262.8z"/>
	<path fill="rgba(179,189,222,0.2)" d="M104.6,103.1c0.4,0.8,0.9,1.4,1,2c0.1,0.3-0.2,0.8-0.5,1c-10.7,10.7-21.3,21.4-32,32
		c-0.3,0.3-0.8,0.5-1.2,0.7c0-0.5,0.1-1,0-1.5c-0.2-1.4,0.3-2.4,1.4-3.4c9.7-9.6,19.3-19.2,28.9-28.8
		C102.8,104.6,103.4,104.2,104.6,103.1z"/>
	<path fill="rgba(179,189,222,0.2)" d="M653.3,405c-0.6-0.9-1.1-1.6-1.3-2.3c-0.1-0.3,0.4-0.8,0.7-1.1c10.7-10.7,21.4-21.4,32.1-32.1
		c0.2-0.2,0.7-0.2,1-0.2c0,0.3,0.2,0.7,0.1,1c-1.2,2-1.9,4.2-3.7,6c-9.3,9-18.4,18.3-27.5,27.4C654.2,404.1,653.8,404.5,653.3,405z"
		/>
	<path fill="rgba(179,189,222,0.2)" d="M720.2,95c-0.5,0.8-0.9,1.9-1.6,2.6c-9.7,9.8-19.5,19.6-29.3,29.3c-0.3,0.3-0.8,0.9-1.1,0.8
		c-0.5-0.1-1.1-0.5-1.2-0.9c-0.1-0.6,0-1.3,0.3-1.8c0.3-0.6,0.9-1,1.4-1.4c9.9-9.9,19.8-19.8,29.7-29.7c0.4-0.4,0.7-0.7,1.1-1.1
		C719.6,93.5,719.9,94.1,720.2,95z"/>
	<path fill="rgba(179,189,222,0.2)" d="M686,327.1c-0.1,0.4-0.2,1.1-0.5,1.6c-0.2,0.4-0.7,0.7-1,1.1c-10.1,10.1-20.2,20.3-30.4,30.4
		c-0.2,0.2-0.7,0.2-1,0.4c0-0.5-0.1-1,0.1-1.3c1.4-2.5,2.7-4.9,4.9-7c8-7.8,15.8-15.7,23.7-23.6c0.8-0.8,1.6-1.7,2.5-2.4
		c0.3-0.2,0.9-0.2,1.3-0.1C685.7,326.1,685.8,326.6,686,327.1z"/>
	<path fill="rgba(179,189,222,0.2)" d="M738.1,165.4c-0.3,0.6-0.4,1.1-0.6,1.4c-1.1,1.2-2.3,2.4-3.5,3.5c-8.8,8.8-17.6,17.6-26.4,26.3
		c-0.3,0.3-0.9,2-1.5,0.5c-0.2-0.6-2.1-1.6-0.3-2.7c0.1-0.1,0.2-0.2,0.4-0.3c9.3-9.3,18.5-18.5,27.8-27.8c0.8-0.8,1.5-1.9,2.9-1.5
		C737.2,165,737.6,165.2,738.1,165.4z"/>
	<path fill="rgba(179,189,222,0.2)" d="M298.8,162.7c0.4-0.7,0.6-1.7,1.3-2.3c9.6-9.6,19.2-19.2,28.8-28.9c0.7-0.7,1.1-0.4,1.4,0.2
		c0.3,0.5,0.8,1.2,0.7,1.7c-0.1,0.6-0.8,1-1.3,1.4c-9.6,9.6-19.2,19.2-28.8,28.8c-0.4,0.4-0.9,0.8-1.4,1.2
		C299.2,164.2,299,163.6,298.8,162.7z"/>
	<path fill="rgba(179,189,222,0.2)" d="M571.9,97.7c0.4,1.2,0.7,2,0.8,2.8c0,0.3-0.6,0.7-1,1.1c-9.5,9.5-19,19.1-28.6,28.5
		c-0.2,0.2-0.5,1.6-1.2,0.2c-0.3-0.7-0.8-1.3-0.9-2.1c0-0.3,0.6-0.7,1-1c9.5-9.5,19-19,28.6-28.6C570.9,98.4,571.2,98.2,571.9,97.7z
		"/>
	<path fill="rgba(179,189,222,0.2)" d="M550.3,353c-0.5,0.8-0.9,1.9-1.6,2.6c-8.7,8.7-17.4,17.4-26.1,26.1c-0.4,0.4-1,0.9-1.5,1.1
		c-0.6,0.1-1.2-0.1-1.9-0.2c0.1-0.6,0.1-1.2,0.3-1.7c0.3-0.6,0.9-1,1.4-1.4c9.2-9.2,18.4-18.4,27.5-27.5c0.4-0.4,0.7-0.7,1.1-1.1
		C549.7,351.5,549.9,352,550.3,353z"/>
	<path fill="rgba(179,189,222,0.2)" d="M686.1,337.5c-0.2,1-0.3,1.7-0.6,2.2c-0.3,0.6-0.9,1-1.4,1.4c-8.6,8.6-17.2,17.2-25.8,25.8
		c-0.9,0.9-1.7,1.6-2.8,0.2c-0.2-0.3-0.4-0.7-0.4-1c0-0.3,0.4-0.5,0.7-0.7c9.1-9.1,18.1-18.1,27.2-27.2c0.5-0.5,0.9-1,1.5-1.2
		C685,336.8,685.6,337.3,686.1,337.5z"/>
	<path fill="rgba(179,189,222,0.2)" d="M693.2,133.8c-0.4-0.8-0.8-1.4-1-2.1c-0.1-0.3,0.2-0.8,0.4-1c9.3-9.3,18.6-18.6,27.9-27.9
		c0.3-0.3,0.6-1.3,1.4-0.4c0.5,0.6,1.2,0.9,0.2,1.8c-0.8,0.7-1.1,1.9-1.8,2.7c-8.2,8.3-16.4,16.5-24.7,24.7
		C695.1,132.2,694.5,132.6,693.2,133.8z"/>
	<path fill="rgba(179,189,222,0.2)" d="M329.9,123.3c-0.3,0.4-0.6,0.7-0.9,1c-9.5,9.5-19.1,19.1-28.6,28.6c-0.5,0.5-0.9,1-1.4,1.4
		c-0.2,0.2-0.5,0.2-0.7,0.4c-0.1-0.3-0.3-0.6-0.3-0.9c0.1-0.6,0-1.4,0.4-1.8c1.9-2.4,3.9-4.8,6-7c5.2-5.4,10.6-10.6,15.8-15.9
		c1.6-1.6,3.8-2.7,4.9-4.9c0.9-1.7,2.5-1.4,3.9-1.3C329.3,122.9,329.6,123.2,329.9,123.3z"/>
	<path fill="rgba(179,189,222,0.2)" d="M656.7,376.8c0.3-0.6,0.7-1.8,1.4-2.5c8.9-9,17.8-17.8,26.7-26.7c0.2-0.2,0.5-0.4,0.7-0.6
		c0.1,0.4,0.4,0.9,0.4,1.3c0.1,1.3-0.1,2.4-1.2,3.5c-8.9,8.7-17.6,17.5-26.4,26.3c-0.3,0.3-0.7,0.4-1,0.6
		C657.1,378.2,656.9,377.7,656.7,376.8z"/>
	<path fill="rgba(179,189,222,0.2)" d="M745.3,180.9c-0.6,0.6-1,1.1-1.4,1.5c-8.9,8.9-17.8,17.8-26.7,26.7c-0.3,0.3-0.7,0.3-1,0.5
		c-0.3-0.8-0.8-1.6-1-2.4c-0.1-0.3,0.6-0.7,1-1c8.2-8.2,16.4-16.4,24.6-24.6c0.9-0.9,1.7-2.1,3.3-1.6
		C744.4,180,744.7,180.4,745.3,180.9z"/>
	<path fill="rgba(179,189,222,0.2)" d="M737.9,177.4c-0.3,0.3-0.5,0.5-0.7,0.7c-8.3,8.3-16.7,16.7-25,25c-0.1,0.1-0.2,0.2-0.4,0.4
		c-0.8,0.8-1.4,0.4-2.1-0.2c-0.8-0.7-0.7-1.1,0-1.8c8.2-8.2,16.5-16.4,24.7-24.6c1-1,1.8-1.4,2.8-0.1
		C737.4,177,737.7,177.2,737.9,177.4z"/>
	<path fill="rgba(179,189,222,0.2)" d="M703.6,189.3c-0.3-0.7-0.6-1.1-0.7-1.5c-0.4-1.4,0.6-2.1,1.4-2.9c5-5,10.1-10.1,15.1-15.1
		c2.5-2.5,4.9-4.9,7.4-7.4c1-1,1.7-0.6,2.4,0.3c0.2,0.3,0.3,0.7,0.3,1c-0.1,0.3-0.4,0.5-0.7,0.7c-7.7,7.7-15.5,15.5-23.2,23.2
		C705.1,188.2,704.4,188.7,703.6,189.3z"/>
	<path fill="rgba(179,189,222,0.2)" d="M208,66.9c-0.1,0.5,0,1.3-0.4,1.7c-1.3,1.8-2.7,3.6-4.2,5.2c-6.7,6.8-13.4,13.4-20.1,20.1
		c-0.3,0.3-0.7,1.4-1.3,0.3c-0.4-0.7-0.4-1.6-0.6-2.4c0-0.1,0.2-0.2,0.3-0.3c8.4-8.4,16.7-16.7,25.1-25.1c0.2-0.2,0.5-0.4,0.7-0.6
		C207.7,66.2,207.8,66.5,208,66.9z"/>
	<path fill="rgba(179,189,222,0.2)" d="M184.4,103.8c-0.5-0.9-1-1.7-1.2-2.5c-0.1-0.2,0.6-0.7,1-1c7.4-7.4,14.8-14.8,22.1-22.1
		c0.6-0.6,1.1-1.7,2.1-0.3c0.9,1.1,0.6,1.7-0.2,2.4c-1.4,1.4-2.8,2.8-4.2,4.2c-6.2,6.2-12.4,12.4-18.6,18.6
		C185,103.3,184.7,103.6,184.4,103.8z"/>
	<path fill="rgba(179,189,222,0.2)" d="M518.6,99.2c-0.8-0.4-1.4-0.4-1.5-0.8c-0.2-0.3,0-1,0.3-1.3c2.4-2.5,4.9-5,7.4-7.4c2.7-2.7,5.3-5.5,8.2-8.1
		c1-0.9,1.6-3.3,3.8-1.9c0.3-1.8,1.8-2.6,2.8-3.8c0.7-0.9,1.6-1,2.6-0.9c0.2,0,0.5,0.5,0.5,0.8c0,0.3-0.4,0.5-0.7,0.7
		c-6.9,6.9-13.9,13.9-20.8,20.8C520.3,98,519.4,98.6,518.6,99.2z"/>
	<path fill="rgba(179,189,222,0.2)" d="M725.6,156.2c-0.9,1.1-1.2,1.7-1.6,2.1c-2.4,2.5-4.9,4.9-7.4,7.4c-4.4,4.4-8.9,8.9-13.4,13.3
		c-0.3,0.3-0.7,0.5-1,0.7c0-0.6-0.1-1.2,0.1-1.7c0.6-2.2,1.8-3.9,3.4-5.5c5.7-5.5,11.3-11.2,16.9-16.8c0.3-0.3,0.7-0.5,1-0.4
		C724.3,155.4,724.9,155.8,725.6,156.2z"/>
	<path fill="rgba(179,189,222,0.2)" d="M209.2,89.3c-0.4,0.7-0.9,1.7-1.6,2.4c-3.5,3.6-7,7.1-10.5,10.6c-2.3,2.3-4.7,4.7-7,7
		c-0.5,0.5-0.9,1.3-1.4,1.3c-0.6,0.1-1.4-0.3-2-0.7c-0.9-0.5-0.2-1,0.2-1.4c6.7-6.7,13.4-13.4,20.1-20c0.4-0.4,1.1-0.4,1.7-0.5
		C208.6,88,208.8,88.5,209.2,89.3z"/>
	<path fill="rgba(179,189,222,0.2)" d="M744.2,192.7c-0.5,0.6-0.7,1-1,1.4c-6.3,6.3-12.7,12.7-19,19c-0.1,0.1-0.2,0.2-0.4,0.4
		c-0.7,0.8-1.4,0.5-2.1-0.1c-0.8-0.7-0.8-1,0-1.8c6.6-6.5,13.1-13.1,19.7-19.6c0.3-0.3,1-0.6,1.4-0.4
		C743.4,191.6,743.7,192.2,744.2,192.7z"/>
	<path fill="rgba(179,189,222,0.2)" d="M93,107.4c-0.2,0.2-0.5,0.5-0.7,0.7c-6.9,6.9-13.9,13.9-20.9,20.8c-0.3,0.3-0.9,0.4-1.4,0.5
		c0.9-1-1.7-1.5-0.3-2.8c5.3-5.1,10.3-10.4,15.6-15.4c1.9-1.8,4.4-2.9,6.7-4.3c0.2-0.1,0.7,0,1,0C93,106.9,93,107.2,93,107.4z"/>
	<path fill="rgba(179,189,222,0.2)" d="M0.8,251.7c0.3-0.6,0.7-1.7,1.4-2.4c5.8-5.9,11.8-11.8,17.6-17.7c0.6-0.7,1-0.6,1.4,0.1
		c0.3,0.5,0.7,1.1,0.7,1.7c0,0.4-0.6,0.7-0.9,1.1c-6.2,6.2-12.5,12.5-18.7,18.7c-0.3,0.3-0.7,0.4-1,0.5C1.1,253.2,1,252.7,0.8,251.7
		z"/>
	<path fill="rgba(179,189,222,0.2)" d="M47,304.4c0,0.3,0.1,0.8,0,1c-1.4,1.5-3.3,2.7-3.2,5.2c0,0.2-0.5,0.4-0.7,0.7c-1.1,1.4-2.9,2-3.9,3.7
		c-1,1.7-2.7,2.9-4.1,4.3c-1.3,1.3-2.6,2.6-3.9,3.9c-1.4,1.4-2.8,2.8-4.2,4.2c-0.1,0.1-0.2,0.3-0.4,0.3c-0.4,0-0.9,0.1-1.3,0
		c-0.2-0.1-0.4-0.6-0.3-0.8c0.2-0.7,0.3-1.7,0.7-2.2c6.8-6.8,13.6-13.6,20.4-20.4c0.2-0.2,0.6-0.2,0.8-0.4C47,304,47,304.2,47,304.4
		z"/>
	<path fill="rgba(179,189,222,0.2)" d="M75.7,275.5c0.3,0.5,0.8,1,1,1.6c0.1,0.3-0.3,0.8-0.5,1c-5.6,5.6-11.3,11.2-16.8,16.9c-1,1-1.5-0.3-2.1,0.1
		c-0.8,0.5-1.5,1.2-2.3,1.7c-0.2,0.2-0.6,0-1,0c0.1-0.3,0.2-0.6,0.4-0.8c6.5-6.6,13.1-13.1,19.7-19.6
		C74.3,276.1,74.8,276,75.7,275.5z"/>
	<path fill="rgba(179,189,222,0.2)" d="M748.1,199.6c-0.4,0.6-0.5,1-0.8,1.3c-5.8,5.8-11.5,11.5-17.3,17.3c-1,1-1.7,0.6-2.4-0.3
		c-0.2-0.3-0.2-0.7-0.3-1c0-0.1,0.2-0.2,0.3-0.4c6-6,12-12,18-18c0.2-0.2,0.8-0.5,1-0.4C747.2,198.6,747.6,199.1,748.1,199.6z"/>
	<path fill="rgba(179,189,222,0.2)" d="M694.7,140.8c0.3-0.6,0.7-1.7,1.4-2.5c5.4-5.6,11-11,16.4-16.5c0.7-0.7,1.1-0.8,1.8,0
		c0.6,0.7,0.9,1.3,0.2,2.1c-1.9,1.9-3.7,3.7-5.6,5.6c-4.2,4.2-8.4,8.4-12.6,12.6c-0.3,0.3-0.7,0.4-1,0.6
		C695.1,142.2,694.9,141.8,694.7,140.8z"/>
	<path fill="rgba(179,189,222,0.2)" d="M559,103.4c-0.4,0.4-0.6,0.6-0.8,0.8c-5.6,5.6-11.3,11.3-16.9,16.9c-0.5,0.5-0.9,1-1.4,0.1
		c-0.3-0.6-0.6-1.4-0.6-2c0-0.3,0.6-0.7,1-1.1c3.9-3.9,7.8-7.7,11.6-11.6c1.7-1.7,3.6-3,6-3.6C558.1,102.9,558.5,103.2,559,103.4z"
		/>
	<path fill="rgba(179,189,222,0.2)" d="M293.5,101.9c-0.1-0.2-0.3-0.4-0.3-0.7c0-0.1,0.2-0.2,0.3-0.3c5.4-5.4,10.8-10.8,16.2-16.2
		c0.2-0.2,0.5-0.7,0.7-0.7c0.6,0.1,1.2,0.3,1.7,0.6c0.5,0.3,1,0.6,0.3,1.4c-4.4,4.3-8.6,8.8-13.1,13c-1.4,1.3-3.5,2-5.3,2.9
		C293.9,102,293.7,101.9,293.5,101.9z"/>
	<path fill="rgba(179,189,222,0.2)" d="M661.5,196.9c-0.6,0-1.1,0-1.6,0c0.2-0.4,0.4-0.9,0.7-1.2c4.5-4.5,8.9-9,13.4-13.4c0.6-0.5,1.2-1.1,1.9-1.4
		c1.1-0.4,2.4-0.7,3.5-1c0.2,1.5-1.2,2-2,2.8c-4.2,4.3-8.5,8.5-12.6,12.8C663.8,196.6,662.9,197.2,661.5,196.9z"/>
	<path fill="rgba(179,189,222,0.2)" d="M547.1,367.1c-0.3,0.6-0.7,1.7-1.4,2.4c-4.2,4.3-8.4,8.4-12.6,12.7c-1.3,1.3-1.7-1.3-2.8-0.4
		c0.2-0.5,0.2-1.1,0.5-1.4c4.9-4.9,9.8-9.9,14.7-14.8c0.3-0.3,0.7-0.4,1-0.5C546.8,365.6,546.9,366,547.1,367.1z"/>
	<path fill="rgba(179,189,222,0.2)" d="M411.2,62.9c-0.4,0.8-0.6,1.8-1.2,2.4c-4.3,4.4-8.7,8.7-13,13.1c-0.8,0.8-1,0-1.4-0.3
		c-0.8-0.5-0.4-0.9,0.1-1.4c2-2.3,3.9-4.7,6-6.9c2.5-2.7,5.1-5.2,7.7-7.8c0.3-0.3,0.7-0.7,1.1-1C410.7,61.5,410.9,62.1,411.2,62.9z"
		/>
	<path fill="rgba(179,189,222,0.2)" d="M193.9,115c-1-0.2-1.3-0.3-1.6-0.3c0.1-0.4,0.2-0.8,0.4-1c4.7-4.7,9.4-9.4,14.1-14.1c0.7-0.7,1-0.5,1.4,0.1
		c0.3,0.5,0.7,1.1,0.7,1.7c0,0.4-0.6,0.7-0.9,1.1c-3.8,3.8-7.5,7.6-11.3,11.2C195.8,114.5,194.5,114.8,193.9,115z"/>
	<path fill="rgba(179,189,222,0.2)" d="M372.7,135.5c-0.1,0.2-0.4,0.5-0.8,0.8c-3.8,3.8-7.5,7.5-11.3,11.3c-0.4,0.4-0.7,1-1.1,1
		c-0.9,0-1.8-0.2-2.7-0.3c0.2-0.6,0.4-1.3,0.8-1.7c4.3-4.4,8.7-8.7,13.1-13.1c0.2-0.2,1-0.4,1-0.3
		C372.1,134,372.4,134.7,372.7,135.5z"/>
	<path fill="rgba(179,189,222,0.2)" d="M712.2,136.3c-0.5,0.7-0.9,1.9-1.7,2.4c-2.4,1.6-2.3,1.7-3.6,3.3c-2.7,3.1-5.6,5.9-8.6,8.8
		c-0.1,0.1-1.2-0.4-1.3-0.8c-0.4-1.2,0.3-2.1,1.2-2.9c4-3.9,8-7.9,12-11.9c0.4-0.4,0.9-0.8,1.4-1.1
		C711.7,134.6,711.9,135.2,712.2,136.3z"/>
	<path fill="rgba(179,189,222,0.2)" d="M708.3,305.1c-0.5,1-0.7,1.5-1,1.8c-4.1,4.1-8.2,8.3-12.4,12.3c-0.2,0.2-0.9,0.3-1,0.2
		c-0.4-0.6-0.8-1.3-1.1-2c0-0.1,0.4-0.5,0.7-0.7c4-4,8-8,12-12c0.3-0.3,0.8-0.6,1-0.5C707.3,304.4,707.8,304.8,708.3,305.1z"/>
	<path fill="rgba(179,189,222,0.2)" d="M715,155.1c-0.2,0.5-0.3,1.4-0.8,1.9c-3.7,3.8-7.5,7.5-11.2,11.3c-0.8,0.8-1.1,0.2-1.4-0.3
		c-0.3-0.5-0.5-1.1-0.6-1.7c0-0.2,0.4-0.5,0.7-0.7c3.7-3.7,7.5-7.5,11.3-11.2c0.4-0.3,1.1-0.3,1.7-0.4
		C714.7,154.1,714.8,154.6,715,155.1z"/>
	<path fill="rgba(179,189,222,0.2)" d="M748.2,209.8c-0.4,0.7-0.7,1.9-1.4,2.6c-3.1,3.2-6.3,6.4-9.5,9.5c-0.5,0.5-1.3,0.8-2.1,0.9
		c-0.4,0.1-1.1-0.1-1.2-0.4c-0.2-0.3-0.1-1,0.2-1.3c4.1-4.1,8.2-8.2,12.3-12.3c0.3-0.3,0.7-0.5,1-0.7
		C747.7,208.5,747.9,208.9,748.2,209.8z"/>
	<path fill="rgba(179,189,222,0.2)" d="M697.7,159.6c0.3-0.5,0.7-1.6,1.4-2.4c3-3.1,6-6.1,9.1-9.1c0.5-0.5,1.3-1,2-1.1c0.5-0.1,1.1,0.3,1.6,0.6
		c0.1,0.1-0.1,0.9-0.4,1.2c-1.1,1.2-2.3,2.4-3.5,3.5c-2.8,2.8-5.6,5.6-8.5,8.4c-0.4,0.4-0.9,0.5-1.4,0.8
		C698,161.1,697.9,160.7,697.7,159.6z"/>
	<path fill="rgba(179,189,222,0.2)" d="M262.8,110.5c0.3-0.5,0.7-1.6,1.4-2.3c2.3-2.3,4.5-4.7,7.3-6.5c1.1-0.7,3.1-1.1,2.6-3.4
		c-0.1-0.4,1.1-2.1,2.4-0.5c0.3,0.4,2.6-0.6,0.8,1.2c-4.3,4.2-8.5,8.5-12.7,12.7c-0.4,0.4-0.9,0.5-1.4,0.7
		C263.1,112.1,263,111.6,262.8,110.5z"/>
	<path fill="rgba(179,189,222,0.2)" d="M702,300.6c-0.2,0.4-0.2,0.9-0.5,1.2c-3.6,3.6-7.2,7.2-10.8,10.8c-0.3,0.3-1,0.4-1.3,0.2
		c-0.3-0.2-0.5-0.8-0.4-1.2c0.1-0.6,0.2-1.3,0.6-1.7c3.1-3.2,6.2-6.3,9.4-9.4c0.5-0.5,1.5-0.4,2.2-0.5
		C701.4,299.9,701.7,300.3,702,300.6z"/>
	<path fill="rgba(179,189,222,0.2)" d="M716.2,352.8c-0.4-0.6-0.9-1.3-1.2-2c-0.1-0.2,0.1-0.6,0.4-0.8c3.5-3.5,7-7,10.6-10.6c1-1,1.7-0.6,2.4,0.3
		c0.2,0.3,0.3,0.9,0.2,1c-2.3,1.6-3.3,5.1-6.8,5.2c-0.3,0-0.7,0.6-0.7,1c-0.2,2.9-2.9,3.8-4.3,5.7
		C716.6,352.7,716.4,352.7,716.2,352.8z"/>
	<path fill="rgba(179,189,222,0.2)" d="M174.2,298.9c-0.1,0-0.6-0.2-1-0.3c0.2-0.4,0.4-0.8,0.7-1c4-4,7.9-8,11.9-11.9c0.2-0.2,0.5-1.6,1.2-0.2
		c0.3,0.7,1,1.9,0.9,2c-2.2,1.8-3.4,4.9-6.6,5.5c-1.4,0.3-2,1-2.4,2.5C178.3,298,176.9,298.9,174.2,298.9z"/>
	<path fill="rgba(179,189,222,0.2)" d="M78,285.7c-0.4,0.7-1,2.1-1.7,3.4c-0.9,1.6-3,1.8-3.9,3.7c-0.8,1.7-2.7,2.9-4.1,4.3
		c-0.3,0.3-0.8,0.8-1.2,0.7c-0.6-0.1-1.1-0.6-1.6-1c-0.2-0.2-0.1-0.8,0.1-1c3.8-3.9,7.7-7.8,11.6-11.6c0.2-0.2,0.6-0.2,0.8-0.4
		C78,284.2,78,284.5,78,285.7z"/>
	<path fill="rgba(179,189,222,0.2)" d="M429.2,97.6c0.5,0.5,1,0.9,1.3,1.4c0.1,0.2,0,0.8-0.2,1c-3.4,3.4-6.7,6.8-10.2,10.1
		c-0.2,0.2-0.5,1.6-1.2,0.2c-0.3-0.7-0.7-1.3-0.9-2.1c0-0.1,0.4-0.5,0.7-0.7c3-3,6.1-6.1,9.1-9.1C428.1,98.2,428.6,98,429.2,97.6z"
		/>
	<path fill="rgba(179,189,222,0.2)" d="M347.3,38.9c-0.5,0.9-0.9,2-1.6,2.7c-2.7,2.9-5.5,5.7-8.4,8.4c-0.5,0.5-1.3,0.6-2,0.8c0-0.9-0.5-2.2,0-2.6
		c2.3-2.5,4.6-5.2,7.5-7.1c1.4-0.9,1.8-1.9,2.6-3c0.3-0.4,0.7-0.7,1-1.1C346.6,37.5,346.9,38,347.3,38.9z"/>
	<path fill="rgba(179,189,222,0.2)" d="M688.9,135.9c-0.5,1.2-0.8,3-1.8,4.2c-2.4,2.8-5.1,5.5-8.3,7.4c-0.5,0.3-1.2,0.3-1.8,0.4
		c-0.3,0-0.6-0.2-0.9-0.3c0.1-0.2,0.2-0.5,0.4-0.7c3.9-3.9,7.7-7.8,11.6-11.6c0.2-0.2,0.6-0.2,0.8-0.4
		C688.9,135.1,688.9,135.2,688.9,135.9z"/>
	<path fill="rgba(179,189,222,0.2)" d="M310.7,95.9c-0.1-0.1-0.4-0.1-0.4-0.2c0-0.2-0.1-0.6,0-0.7c3.2-3.3,6.5-6.5,9.8-9.8
		c0.8-0.8,1.4-0.2,2.1,0.3c1,0.8,0.4,1.2-0.2,1.8c-2.1,2.1-4.2,4.2-6.3,6.3C314.3,95.1,312.8,96,310.7,95.9z"/>
	<path fill="rgba(179,189,222,0.2)" d="M685.4,305.9c-0.2-0.3-0.4-0.7-0.5-1.1c-0.3-1.1,0.3-1.8,1.1-2.5c2.6-2.5,5.2-5.1,7.7-7.7
		c0.6-0.6,1-0.8,1.4,0c0.3,0.6,0.8,1.7,0.5,2c-2.9,3.1-6,6.1-9.1,9.1C686.4,305.9,685.9,305.8,685.4,305.9z"/>
	<path fill="rgba(179,189,222,0.2)" d="M752.1,217.2c-0.2,0.6-0.3,1.3-0.7,1.7c-2.4,2.5-4.9,5-7.4,7.4c-0.4,0.4-1.1,0.5-1.7,0.6
		c-0.4,0-1.1-0.2-1.2-0.5c-0.2-0.3,0-1,0.2-1.3c2.9-3,5.8-5.9,8.8-8.8c0.3-0.3,0.9-0.5,1.3-0.3C751.7,216.1,751.8,216.7,752.1,217.2
		z"/>
	<path fill="rgba(179,189,222,0.2)" d="M54.3,156.2c-0.4,0.9-0.6,1.4-0.9,1.7c-2.8,2.8-5.6,5.6-8.4,8.4c-0.7,0.7-1.1,0.4-1.4-0.2
		c-0.3-0.5-0.7-1.1-0.7-1.7c0-0.4,0.6-0.7,0.9-1.1c2.6-2.6,5.1-5.1,7.7-7.7c0.3-0.3,0.8-0.6,1-0.5C53.3,155.4,53.8,155.8,54.3,156.2
		z"/>
	<path fill="rgba(179,189,222,0.2)" d="M756.3,335c-1.3,1.3-2.3,2.7-3.6,3.5c-1.4,0.8-2.4,1.6-3.2,3.1c-0.7,1.4-2.2,2.4-3.4,3.5
		c-0.4,0.4-1.1,0.5-1.7,0.7c-0.1-0.9-0.7-2.2-0.3-2.6c1.8-2.1,4-4,5.9-6.1c0.8-0.9,1.5,2,1.9-0.2c0.2-0.7,0.8-1.4,0.9-2.1
		c0.2-1.7,1.4-0.9,2.3-1C755.4,333.9,755.7,334.4,756.3,335z"/>
	<path fill="rgba(179,189,222,0.2)" d="M418.1,78.2c-0.3,0.5-0.7,1.6-1.4,2.3c-2,2.2-4.3,4.1-6.2,6.4c-1,1.1-1.4,0.5-2.2,0c-0.5-0.3-2,0.1-0.7-1.2
		c0.8-0.8,1.6-1.6,2.5-2.5c2.1-2.1,4.2-4.2,6.3-6.3c0.4-0.4,0.9-0.5,1.4-0.8C417.8,76.7,417.9,77.1,418.1,78.2z"/>
	<path fill="rgba(179,189,222,0.2)" d="M412.5,73.8c0.1-0.1-0.3,0.3-0.7,0.7c-2.5,2.5-4.9,5-7.4,7.4c-0.3,0.3-0.9,0.4-1.4,0.6
		c-0.1,0-0.5-2.6-0.4-2.7c1.9-1.9,3.8-3.8,5.6-5.6c0.8-0.8,1.6-1.7,2.5-2.5c0.3-0.3,0.8-0.5,1.2-0.7
		C412.1,71.7,412.2,72.4,412.5,73.8z"/>
	<path fill="rgba(179,189,222,0.2)" d="M386.7,118.9c1.3,0,1.8,0,2.3,0c-0.2,0.4-0.4,0.9-0.7,1.2c-3,3.1-6.1,6.1-9.1,9.1c-0.2,0.2-0.5,0.4-0.7,0.7
		c-0.2-0.4-0.5-0.9-0.4-1.3c0.1-0.9,0.1-2,0.6-2.7c0.8-1.2,2.4-1.6,3.1-3.1c0.6-1.3,1.9-2.3,3.1-3.2
		C385.5,119.1,386.5,119,386.7,118.9z"/>
	<path fill="rgba(179,189,222,0.2)" d="M424.6,80.1c0.2,0.6,0.3,1.3,0.7,1.7c0.7,0.7,0.3,1-0.2,1.4c-2.8,2.8-5.6,5.6-8.4,8.3
		c-0.1,0.1-0.5-0.1-0.8-0.1c0.3-1.2-0.5-2.6,0.6-3.7c2.5-2.4,4.9-4.9,7.4-7.3C424.1,80.2,424.4,80.2,424.6,80.1z"/>
	<path fill="rgba(179,189,222,0.2)" d="M334.3,86.1c-0.4,0.4-0.6,0.5-0.7,0.6c-2.9,2.9-5.8,5.8-8.7,8.7c-0.8,0.8-1.5,0.6-2-0.2
		c-0.3-0.4-0.5-1.2-0.4-1.3c2.8-2.4,4.7-5.8,8.3-7.4c0.7-0.3,1.4-0.5,2.2-0.7C333.3,85.9,333.7,86,334.3,86.1z"/>
	<path fill="rgba(179,189,222,0.2)" d="M690,290.8c-0.2,0.3-0.3,0.8-0.6,1.1c-2.3,2.4-4.9,4.6-7,7.1c-1.3,1.6-1.8-0.7-2.8-0.1
		c-0.1-0.3-0.4-0.8-0.3-0.9c2.5-2.6,5.1-5.2,7.8-7.7c0.5-0.4,1.5-0.3,2.3-0.4C689.6,289.9,689.7,290.4,690,290.8z"/>
	<path fill="rgba(179,189,222,0.2)" d="M673.6,271.6c0.6,0.4,1,0.6,1.3,0.9c0.1,0.2,0.1,0.7-0.1,0.9c-2.7,2.7-5.3,5.4-8.1,8
		c-0.3,0.3-1.6-0.3-2.3-0.6c-1.4-0.6,0-1,0.2-1.1c2.2-2.3,4.4-4.5,6.6-6.7C671.9,272.5,672.8,272.1,673.6,271.6z"/>
	<path fill="rgba(179,189,222,0.2)" d="M405.2,388.1c-0.4,0.7-0.5,1.5-1,2.1c-1.9,2-3.9,4-5.9,5.9c-0.5,0.5-1.4,0.7-2.1,0.8
		c-0.3,0.1-0.8-0.3-1.1-0.6c-0.1-0.2-0.1-0.7,0.1-0.9c2.8-2.8,5.5-5.6,8.4-8.4c0.2-0.2,0.7-0.2,0.9-0.1
		C404.6,387.1,404.8,387.6,405.2,388.1z"/>
	<path fill="rgba(179,189,222,0.2)" d="M164.5,310.9c-0.3-0.3-0.6-0.5-0.7-0.8c-0.3-0.5-0.7-1.1-0.7-1.7c0-0.3,0.6-0.7,0.9-1.1
		c2.2-2.2,4.5-4.4,6.6-6.7c0.7-0.8,1.1-0.7,1.8,0c0.6,0.7,0.9,1.3,0.2,2.1c-2.5,2.5-4.9,4.9-7.4,7.4
		C164.9,310.4,164.7,310.7,164.5,310.9z"/>
	<path fill="rgba(179,189,222,0.2)" d="M637.7,274.5c0.3,0.5,0.7,1,0.9,1.6c0.1,0.3-0.2,0.8-0.5,1c-2.2,1.9-3.7,4.6-6.5,5.7
		c-0.3,0.1-0.6,0.4-0.6,0.6c-0.1,1.3-0.8,2-2,2.3c-0.2,0,0.3-3.7,0.7-4.1c0.8-0.8,1.6-1.6,2.4-2.5c1.3-1.3,2.6-2.6,3.9-3.8
		C636.2,275.1,636.7,275,637.7,274.5z"/>
	<path fill="rgba(179,189,222,0.2)" d="M706.1,318.2c-0.3,0.6-0.7,1.6-1.4,2.4c-1.7,1.8-3.5,3.6-5.3,5.3c-0.5,0.5-0.9,1.3-1.8,0.3
		c-0.8-0.9-1-1.6,0-2.5c0.6-0.5,1.2-1.2,1.8-1.8c1.6-1.6,3.3-3.3,5-4.9c0.4-0.4,0.9-0.6,1.4-0.8
		C705.8,316.6,705.9,317.1,706.1,318.2z"/>
	<path fill="rgba(179,189,222,0.2)" d="M423.2,94.9c-1.3,0-1.8,0-2.3,0c0.2-0.4,0.4-0.9,0.7-1.2c2.4-2.5,4.9-5,7.4-7.4c0.3-0.3,1.2-0.5,1.3-0.4
		c0.3,0.5,0.5,1.1,0.6,1.7c0,0.4-0.2,1-0.5,1.3c-1.7,1.8-3.4,3.6-5.3,5.3C424.5,94.7,423.4,94.8,423.2,94.9z"/>
	<path fill="rgba(179,189,222,0.2)" d="M756.1,234.8c-0.3,0.7-0.3,1.6-0.8,2.1c-1.8,1.9-3.7,3.8-5.6,5.6c-0.3,0.3-0.9,0.3-1.3,0.3
		c-0.4,0-1.1-0.1-1.3-0.4c-0.2-0.3-0.1-0.9,0.1-1.3c0.2-0.4,0.7-0.7,1-1.1c2.1-2.1,4.2-4.2,6.3-6.3c0.3-0.3,0.7-0.6,1-0.9
		C755.7,233.6,755.9,234.1,756.1,234.8z"/>
	<path fill="rgba(179,189,222,0.2)" d="M652.5,29.8c0.7,0.3,1,0.4,1.2,0.5c-0.1,0.2-0.2,0.5-0.4,0.7c-3.5,3.5-7.1,7.1-10.6,10.6
		c-0.2,0.2-0.6,0.2-0.8,0.4c0-0.3-0.1-0.7,0-1c0.2-0.7,0.2-1.7,0.7-2.2c1.7-1.7,3.7-3.2,5.4-4.9c0.9-0.8,1.4-2,2.3-2.9
		C651,30.4,651.9,30.1,652.5,29.8z"/>
	<path fill="rgba(179,189,222,0.2)" d="M72,139.4c-0.3,0.3-0.5,0.5-0.8,0.7c-3,3-6.1,6.1-9.1,9.1c-0.2,0.2-0.7,0.3-1,0.4c-0.1-0.3-0.2-0.6-0.1-0.9
		c0.1-0.6,0.2-1.3,0.5-1.8c2-3.1,5.1-5.1,7.7-7.6c0.5-0.4,1.5-0.3,2.3-0.4C71.7,138.9,71.9,139.2,72,139.4z"/>
	<path fill="rgba(179,189,222,0.2)" d="M326.9,26.9c-0.2,0.5-0.2,0.8-0.4,1c-2.2,2.2-4.4,4.4-6.6,6.6c-0.3,0.3-1.2,0.5-1.2,0.4
		c-0.3-0.5-0.5-1.1-0.6-1.6c-0.1-0.3-0.1-0.7,0.1-0.9c2.1-2.1,4.1-4.3,6.3-6.2C324.7,25.8,326,26.6,326.9,26.9z"/>
	<path fill="rgba(179,189,222,0.2)" d="M678.8,398.8c0.3,3.2-1.1,4.6-3.1,5c-1.7,0.4-2.5,0.9-2.9,2.6c-0.2,0.8-1.2,1.6-2.1,2.1
		c-0.6,0.4-1.8,0.7-2.3,0.3c-1.1-0.9,0.3-1.3,0.7-1.7c2.6-2.8,5.4-5.5,8.1-8.1c0.4-0.4,0.9-0.6,1.4-0.8
		C678.8,398.6,678.9,399.1,678.8,398.8z"/>
	<path fill="rgba(179,189,222,0.2)" d="M544.8,83.2c-0.9-0.3-1.3-0.5-1.7-0.6c0.2-0.3,0.4-0.7,0.7-1c2.3-2.3,4.7-4.7,7-7c0.2-0.2,0.5-0.4,0.7-0.5
		c0.1,0.3,0.4,0.6,0.4,0.8c-0.1,1.2,0.4,2.6-0.9,3.6c-1.3,1-2.3,2.4-3.6,3.4C546.6,82.5,545.6,82.8,544.8,83.2z"/>
	<path fill="rgba(179,189,222,0.2)" d="M176.3,108.9c0.2,0.2,0.6,0.5,0.7,0.8c0.1,0.6,0.2,1.5-0.2,1.9c-2,2.2-4.2,4.3-6.3,6.3
		c-0.1,0.1-1.2-0.4-1.4-0.8c-0.2-0.5-0.2-1.5,0.2-1.8c2-2.2,4.2-4.2,6.3-6.3C175.6,108.8,175.8,108.9,176.3,108.9z"/>
	<path fill="rgba(179,189,222,0.2)" d="M343,32.9c-0.2,0.3-0.3,0.7-0.6,1c-2.1,2.1-4.2,4.2-6.3,6.3c-0.2,0.2-1,0.3-1,0.3c-0.3-0.8-1.1-2-0.8-2.3
		c2.2-2.4,4.3-4.8,7.2-6.3c0.3-0.1,0.9,0.2,1.3,0.4C342.9,32.3,342.9,32.6,343,32.9z"/>
	<path fill="rgba(179,189,222,0.2)" d="M227.1,115.1c-0.2,0.5-0.4,1.5-1,2.2c-1.3,1.5-2.8,2.8-4.2,4.2c-1,1-1.7,0.2-2.4-0.5
		c-0.8-0.7-0.1-1,0.3-1.4c1.9-1.9,3.7-3.8,5.6-5.6c0.4-0.4,0.9-0.5,1.4-0.8C226.9,113.7,227,114.2,227.1,115.1z"/>
	<path fill="rgba(179,189,222,0.2)" d="M712.8,342.9c0.2-0.6,0.4-1.6,1-2.3c1.3-1.5,2.8-2.8,4.2-4.2c0.1-0.1,0.3-0.4,0.3-0.3
		c0.7,0.2,1.4,0.4,2,0.7c0.9,0.5,0.3,0.9-0.2,1.4c-1.9,1.9-3.7,3.7-5.6,5.6c-0.4,0.4-0.9,0.6-1.4,0.9
		C713,344.1,712.9,343.7,712.8,342.9z"/>
	<path fill="rgba(179,189,222,0.2)" d="M33.7,98c0.4-0.7,0.7-1.8,1.3-2.6c1.2-1.4,2.6-2.6,3.8-3.9c0.9-1,1.5-0.6,2.4,0.1c1.2,1,0.1,1.3-0.3,1.8
		c-1.8,1.9-3.7,3.7-5.6,5.6c-0.3,0.3-0.7,0.5-1,0.7C34.2,99.3,34,98.9,33.7,98z"/>
	<path fill="rgba(179,189,222,0.2)" d="M540.3,110.9c-0.4-1-1.3-2.3-0.9-2.7c1.8-2.1,3.8-4.1,5.8-6c0.8-0.8,1.4,0,2,0.5c1.2,0.9,0.1,1.3-0.3,1.8
		c-1.7,2.2-4.4,3.5-5.9,5.9C540.9,110.5,540.6,110.6,540.3,110.9z"/>
	<path fill="rgba(179,189,222,0.2)" d="M513.7,90.9c0.5-0.8,0.9-2,1.7-2.8c1.4-1.4,2.4-3.7,5.1-3.2c0.5,0.1,1,0,1.5,0c-0.2,0.4-0.4,0.9-0.7,1.2
		c-2,2-3.9,4-5.9,5.9c-0.3,0.3-0.7,0.5-1,0.7C514.1,92.3,514,91.9,513.7,90.9z"/>
	<path fill="rgba(179,189,222,0.2)" d="M754.1,225.9c-0.4,0.8-0.6,1.7-1.2,2.4c-1.2,1.4-2.6,2.6-3.8,3.9c-0.6,0.6-1,0.7-1.4,0
		c-0.3-0.5-0.7-1.1-0.7-1.7c0-0.3,0.6-0.7,0.9-1.1c1.5-1.5,3-3,4.6-4.6c0.3-0.3,0.7-0.6,1-0.9C753.7,224.5,753.9,225.1,754.1,225.9z
		"/>
	<path fill="rgba(179,189,222,0.2)" d="M756.1,312.5c-0.3,0.6-0.4,1-0.8,1.4c-2.1,2.1-4.2,4.2-6.3,6.3c-0.2,0.2-0.7,0.2-1,0.3c0-0.3-0.1-0.6-0.1-1
		c0-0.5,0-1,0.3-1.4c1.5-1.9,2.9-3.8,4.6-5.5c0.5-0.5,1.4-0.6,2.2-0.7C755.2,311.9,755.6,312.3,756.1,312.5z"/>
	<path fill="rgba(179,189,222,0.2)" d="M334.2,94.9c-0.1,0-0.6-0.2-1-0.3c0.2-0.4,0.4-0.8,0.7-1c1.9-1.9,3.7-3.8,5.7-5.6c0.2-0.2,0.7-0.1,1,0
		c0.2,0.1,0.5,0.5,0.5,0.8c-0.1,1.7-3.4,5.8-4.9,6.2C335.6,95,335,94.9,334.2,94.9z"/>
	<path fill="rgba(179,189,222,0.2)" d="M635.2,26.7c-0.4-0.4-0.9-0.7-1-1.1c-0.1-0.5-0.1-1.3,0.2-1.7c1.8-1.9,3.7-3.8,5.6-5.6
		c0.1-0.1,0.5-0.2,0.7-0.2c0.1,0,0.2,0.2,0.2,0.4c0.1,1.7-3.7,7.5-5.3,8.2C635.5,26.8,635.3,26.7,635.2,26.7z"/>
	<path fill="rgba(179,189,222,0.2)" d="M31.6,91c-0.2-0.3-0.6-0.6-0.6-1c0-0.6-0.1-1.4,0.3-1.8c1.2-1.4,2.5-2.6,3.8-3.8c0.4-0.4,1.2-0.4,1.8-0.4
		c0.4,0,0.8,0.3,1.1,0.6c0.1,0.2,0.1,0.7-0.1,0.9c-1.7,1.8-3.4,3.5-5.2,5.2C32.5,90.8,32.1,90.8,31.6,91z"/>
	<path fill="rgba(179,189,222,0.2)" d="M678,192.4c-0.2,0.4-0.4,1.3-0.5,1.2c-2.6-0.5-2.5,1.5-3.1,3c-0.3,0.7-1.6,0.9-2.3,1.4
		c-0.7,0.5-1.3,1.2-2,0.4c-0.3-0.3,0.1-1.5,0.5-1.9c1.7-1.8,3.4-3.5,5.2-5.2c0.4-0.3,1.1-0.4,1.6-0.3
		C677.8,191.2,677.9,192,678,192.4z"/>
	<path fill="rgba(179,189,222,0.2)" d="M354.1,44c-0.5,0.6-0.7,1-1,1.2c-1.2,1.2-2.5,2.2-3.5,3.5c-0.9,1.2-1.7,0.7-2.6,0.2c-1-0.5-1.1-0.5-0.7-1
		c1.6-1.7,3.2-3.4,5-4.8C351.7,42.8,353,43.6,354.1,44z"/>
	<path fill="rgba(179,189,222,0.2)" d="M748.9,328.3c0.2-0.3,0.5-1.2,1-1.9c1-1.1,2.1-2.2,3.2-3.2c0.5-0.4,1.2-0.6,1.7-0.9c0,0.7,0.3,1.4,0,2
		c-1.1,2.6-3.3,4.4-5.2,6.3c0,0-0.6-0.4-0.7-0.6C748.8,329.7,748.9,329.3,748.9,328.3z"/>
	<path fill="rgba(179,189,222,0.2)" d="M245,118.2c0,3.2-2.6,5.7-5.5,5.7c-0.4,0-0.9-0.2-1.3-0.3c0.2-0.3,0.4-0.7,0.7-1c1.6-1.6,3.2-3.3,4.9-4.8
		c0.3-0.3,0.7-0.4,1-0.6C244.8,117.6,244.9,118,245,118.2z"/>
	<path fill="rgba(179,189,222,0.2)" d="M638.9,12.2c-0.3,0.4-0.4,0.6-0.6,0.8c-1.4,1.4-2.7,2.9-4.3,4.2c-1,0.8-1.3,2.6-3.1,2.2
		c0.3-1.3,0.6-2.7,1.1-4c0.2-0.6,4.7-3.4,5.5-3.4C637.9,11.9,638.4,12.1,638.9,12.2z"/>
	<path fill="rgba(179,189,222,0.2)" d="M356,139.6c0-3.2,2.6-5.7,5.5-5.7c0.4,0,0.9,0.2,1.3,0.3c-0.2,0.3-0.4,0.7-0.7,1c-1.6,1.6-3.2,3.3-4.9,4.8
		c-0.3,0.3-0.7,0.4-1,0.6C356.1,140.2,356,139.8,356,139.6z"/>
	<path fill="rgba(179,189,222,0.2)" d="M280.2,139.1c-0.4,0.7-0.7,1.6-1.2,2.3c-0.6,0.8-1.3,1.5-2.1,2.1c-0.9,0.7-1.3,2.2-2.8,2
		c0.3-1.4,0.4-2.9,1-4c0.7-1.3,2-2.2,3.1-3.2c0.4-0.4,0.9-0.8,1.4-1.2C279.7,137.6,279.9,138.2,280.2,139.1z"/>
	<path fill="rgba(179,189,222,0.2)" d="M540.9,99.1c-0.2,0.4-0.3,0.7-0.5,0.8c-1.5,1.5-3,3.1-4.6,4.6c-0.8,0.8-1.4,0.2-2.1-0.3
		c-1-0.8-0.4-1.2,0.2-1.8c1.6-1.6,3.2-3.2,5.5-3.5C539.9,98.9,540.3,99,540.9,99.1z"/>
	<path fill="rgba(179,189,222,0.2)" d="M276,120.3c-0.1,1.9-2.4,5.2-3.8,5.5c-0.4,0.1-1.1-0.5-1.6-0.8c-0.8-0.5-0.5-0.9,0.1-1.4
		c1.3-1.2,2.5-2.5,3.8-3.8c0.3-0.3,0.7-0.6,1-0.9C275.7,119.6,275.9,120.1,276,120.3z"/>
	<path fill="rgba(179,189,222,0.2)" d="M597.9,84.9c0.3,0.1,0.6,0.2,0.8,0.3c-0.1,0.2-0.2,0.5-0.3,0.7c-2.5,2.6-5.1,5.1-7.6,7.6
		c-0.2,0.2-0.5,0.2-0.8,0.4c0-0.3-0.1-0.9,0-0.9c1.2-0.7,0-3,2.3-3.2c0.6,0,1.4-1.2,1.7-2C594.6,85.8,596.6,86,597.9,84.9z"/>
	<path fill="rgba(179,189,222,0.2)" d="M684.5,150.7c0.5,0.1,0.1,0-0.4-0.1c0.2-0.3,0.3-0.8,0.6-1c1.2-1.3,2.5-2.6,3.8-3.8
		c0.3-0.3,1.2-0.5,1.3-0.4c0.5,0.6,1.1,1.8,1,1.9C689.2,148.7,688.4,151.4,684.5,150.7z"/>
	<path fill="rgba(179,189,222,0.2)" d="M758,243.3c-0.3,2.3-1.7,4.2-3.7,5.6c-0.5,0.3-1.5-0.2-2.3-0.3c0.2-0.6,0.1-1.3,0.5-1.7
		c1.4-1.6,3-3,4.5-4.5c0.1-0.1,0.6-0.2,0.7-0.1C757.8,242.4,757.8,242.8,758,243.3z"/>
	<path fill="rgba(179,189,222,0.2)" d="M631.9,60.9c1,0,1.5,0,2,0c-0.2,0.4-0.4,0.9-0.7,1.2c-1.4,1.4-2.8,2.8-4.2,4.2c-0.7,0.8-1.1,0.2-1.4-0.3
		c-0.3-0.5-0.8-1.4-0.6-1.6c0.9-1.2,2-2.3,3.1-3.2C630.7,60.9,631.6,61,631.9,60.9z"/>
	<path fill="rgba(179,189,222,0.2)" d="M708.9,326.5c0,0.4,0.1,0.8-0.1,1c-1.1,1.2-2.2,2.4-3.5,3.4c-0.4,0.3-1.5-0.2-2.3-0.3
		c0.1-0.6,0.1-1.3,0.4-1.7c0.9-1.1,2-2.1,3.1-3.1c0.4-0.4,0.7-1.2,1.4-0.3C708.3,325.8,708.6,326.1,708.9,326.5z"/>
	<path fill="rgba(179,189,222,0.2)" d="M758.7,286.1c0.3-0.7,0.4-1.7,0.9-2.4c0.9-1.1,2.1-1.9,3.3-2.8c0.1-0.1,0.9,0.5,0.9,0.7
		c0,0.8-0.1,1.7-0.5,2.2c-0.9,1.2-2,2.1-3.1,3.2c-0.3,0.3-0.7,0.4-1,0.7C759.1,287.2,758.9,286.8,758.7,286.1z"/>
	<path fill="rgba(179,189,222,0.2)" d="M33,329.9c-0.2-0.1-0.6-0.3-1-0.5c0.2-0.2,0.5-0.5,0.7-0.7c1-1,2.1-2.1,3.1-3.1c0.6-0.5,1.2-1,1.7-1.6
		c0.1,1.1,0.6,2.2,0.3,3.3C37.6,328.7,35.2,329.9,33,329.9z"/>
	<path fill="rgba(179,189,222,0.2)" d="M761.2,306.3c-0.4,1-0.5,2-1,2.7c-0.8,1-1.8,1.9-2.8,2.8c0,0-0.5-0.3-0.7-0.6c-0.3-0.5-1-1.4-0.8-1.6
		c1.3-1.6,2.8-3.1,4.3-4.6C760.5,305.4,760.8,305.8,761.2,306.3z"/>
	<path fill="rgba(179,189,222,0.2)" d="M715.8,309.2c-0.1,0.2-0.2,0.5-0.4,0.7c-1.6,1.6-3,3.3-5.3,4c-0.3,0.1-0.7,0-0.9-0.2
		c-0.2-0.2-0.4-0.6-0.3-0.8c0.7-2.2,3.7-4.1,6-4C715.2,308.9,715.5,309.1,715.8,309.2z"/>
	<path fill="rgba(179,189,222,0.2)" d="M712.9,332.8c-0.1,1.7-3,5-3.7,4.9c-0.7-0.1-1.4-0.6-2-1c0.2-0.5,0.4-1,0.7-1.4c0.9-1,1.8-1.9,2.8-2.8
		c0.2-0.2,0.7-0.4,1-0.3C712.4,332.4,712.9,332.8,712.9,332.8z"/>
	<path fill="rgba(179,189,222,0.2)" d="M691.8,3.3c-0.1,0.2-0.3,0.5-0.4,0.7c-1.5,1.5-3,3-4.5,4.5c-0.1,0.1-0.6,0.2-0.7,0.1
		c-0.1-0.3-0.3-0.6-0.2-0.9c0.3-1,0.6-2,1-3c0.6-1.5,3.1-2.4,4.5-1.8C691.6,3,691.7,3.2,691.8,3.3z"/>
	<path fill="rgba(179,189,222,0.2)" d="M760.2,254.4c-1.7,1.2-3.1,2.4-4.6,3.4c-0.1,0-0.5-0.3-0.6-0.6c-0.4-1.5,1.4-4.2,3-4.3
		C758.5,252.9,759.2,253.8,760.2,254.4z"/>
	<path fill="rgba(179,189,222,0.2)" d="M668.1,267.6c0.3,1.6-0.9,2.4-1.7,3.4c-0.6,0.7-1.1,0.9-1.8,0.1c-0.6-0.7-1-1.3-0.2-2.1
		c0.7-0.7,1.4-1.4,2.1-2.1c0.3-0.3,0.7-0.7,1-1C667.7,266.5,667.9,267.1,668.1,267.6z"/>
	<path fill="rgba(179,189,222,0.2)" d="M336.5,138.9c-0.2-0.2-0.5-0.5-0.5-0.7c-0.2-1.6,1.9-5.4,3.3-6c0.1,0,0.6,0.5,0.6,0.8
		c0,2.4-1.5,4.1-3.1,5.6C336.7,138.6,336.6,138.8,336.5,138.9z"/>
	<path fill="rgba(179,189,222,0.2)" d="M370.2,115.8c-0.4,0.6-0.9,1.2-1.4,1.8c-0.9,1.2-2,1.6-3.4,1.2c-0.5-0.1,0.7-2.8,1.7-3.4
		c0.6-0.4,1.5-0.4,2.3-0.4C369.5,114.9,369.7,115.3,370.2,115.8z"/>
	<path fill="rgba(179,189,222,0.2)" d="M326.8,36.9c0.3,0.1,0.6,0.1,0.9,0.2c0.1,0,0,0.5-0.1,0.7c-0.9,0.9-1.8,1.9-2.8,2.8c-0.8,0.8-1.4,0.2-2-0.3
		c-0.9-0.8-0.2-1.1,0.1-1.8C323.7,36.5,325.8,38.2,326.8,36.9z"/>
	<path fill="rgba(179,189,222,0.2)" d="M170.4,312.9c0,0.1-0.3-0.5-0.2-0.6c1.3-1.4,2.7-2.8,4.2-4.1c0.1-0.1,0.7,0.4,1,0.6
		c0.2,0.2,0.4,0.5,0.6,0.7c-1.3,1.2-2.6,2.3-4,3.4C171.8,313,171.3,312.9,170.4,312.9z"/>
	<path fill="rgba(179,189,222,0.2)" d="M326.9,35.9c0,0-0.5-0.2-0.9-0.4c0.2-0.2,0.4-0.5,0.6-0.7c0.7-0.7,1.4-1.5,2.1-2.1c0.5-0.4,1.1-0.5,1.7-0.7
		c0.2,0.8,0.6,1.6,0.4,2.3C330.4,35.9,328.9,36.1,326.9,35.9z"/>
	<path fill="rgba(179,189,222,0.2)" d="M757.2,300.8c-0.1-0.5-0.3-0.9-0.2-1.4c0.5-2.3,1.7-4.2,3.1-5.2c0.2-0.1,0.6-0.1,0.7,0
		c0.1,0.3,0.2,0.6,0.2,0.9c-0.3,2.3-2.3,3.6-3.3,5.5C757.6,300.7,757.4,300.7,757.2,300.8z"/>
	<path fill="rgba(179,189,222,0.2)" d="M178,96.5c0.2,2.5-1.9,4.6-4.2,4.4c-0.1,0-0.4-0.1-0.4-0.2c-0.1-0.2-0.1-0.6,0-0.7c1.3-1.3,2.5-2.6,3.9-3.8
		C177.3,96.1,177.8,96.4,178,96.5z"/>
	<path fill="rgba(179,189,222,0.2)" d="M756,156.6c0.9,0.3,1.3,0.5,1.8,0.6c-0.2,0.4-0.5,0.7-0.7,1c-0.6,0.6-1.2,1.1-1.7,1.8
		c-0.7,0.9-1.1,0.7-1.8,0c-0.6-0.7-1-1.4-0.1-2C754.2,157.4,755.3,157,756,156.6z"/>
	<path fill="rgba(179,189,222,0.2)" d="M274.3,135.1c-0.7-0.3-1.2-0.5-1.2-0.6c0-0.8-0.2-1.8,0.2-2.3c0.5-0.6,1.6-1,2.4-1.3
		c0.6-0.2,1.3,0.1,1.9,0.1c-0.3,0.5-0.4,1-0.8,1.4C276,133.4,275.1,134.3,274.3,135.1z"/>
	<path fill="rgba(179,189,222,0.2)" d="M44,98.5c0.2,2.5-2,4.7-4.2,4.4c-0.2,0-0.5-0.7-0.4-0.8c1.2-1.3,2.5-2.6,3.8-3.8
		C43.3,98.1,43.8,98.4,44,98.5z"/>
	<path fill="rgba(179,189,222,0.2)" d="M404.9,110.9c0.9-1.1,1.8-2.2,2.7-3.2c0.2-0.3,0.7-0.4,1-0.5c0.1,0.4,0.3,1.2,0.2,1.3
		c-1.7,0.6,0.4,1.8-0.4,2.4c-0.8,0.7-1.7,1.4-2.5,2C405.8,112.1,406.4,111,404.9,110.9z"/>
	<path fill="rgba(179,189,222,0.2)" d="M522.6,136.6c0.5-0.8,0.9-1.8,1.7-2.5c0.3-0.2,1.3,0.3,2,0.6c0.9,0.5,0.4,0.9-0.1,1.4
		c-0.6,0.5-1.2,1.2-1.8,1.7c-0.3,0.3-0.7,0.6-1.1,0.9C523.2,138.3,523,137.7,522.6,136.6z"/>
	<path fill="rgba(179,189,222,0.2)" d="M759.4,276.9c-0.2-0.2-0.4-0.4-0.5-0.6c-0.2-0.8-0.7-1.9-0.4-2.3c0.8-0.9,1.3-2.6,3-1.9
		c0.9,0.3,0.4,2.3-0.9,3.7C760.2,276.1,759.9,276.4,759.4,276.9z"/>
	<path fill="rgba(179,189,222,0.2)" d="M760.5,260.9c0.1,0.3,0.5,0.6,0.4,0.8c-0.4,1.3-0.8,2.6-1.3,3.9c-0.1,0.1-1.2,0-1.6-0.3
		c-0.4-0.2-0.7-1.1-0.6-1.3c0.8-1,1.8-1.9,2.8-2.8C760.2,261.1,760.4,261,760.5,260.9z"/>
	<path fill="rgba(179,189,222,0.2)" d="M342.3,143.7c-0.1-0.3-0.3-0.6-0.3-0.9c0-1.6,1.5-3.5,3-3.9c0.2-0.1,0.7,0.1,0.8,0.3
		c0.2,0.2,0.3,0.7,0.2,0.9c-1.1,1.2-2.2,2.4-3.3,3.6C342.6,143.8,342.4,143.7,342.3,143.7z"/>
	<path fill="rgba(179,189,222,0.2)" d="M713.9,143.4c0.1-0.2,0.3-1.3,0.7-1.4c0.9-0.3,1.9,0,2.8,0c-0.1,0.3,0,0.8-0.2,1c-0.6,0.7-1.3,1.4-2,2.1
		c-0.3,0.3-0.7,0.4-1,0.7c-0.1-0.4-0.2-0.9-0.3-1.3C713.9,144.2,713.9,144.1,713.9,143.4z"/>
	<path fill="rgba(179,189,222,0.2)" d="M524.2,80.7c0.6,0.2,1.2,0.5,1.7,0.7c-0.3,0.3-0.7,0.7-1,1c-0.7,0.7-1.4,1.4-2.1,2.1
		c-0.1,0.1-0.8-0.1-0.8-0.1c-0.1-1-0.3-2.1,0.1-2.9C522.2,81,523.4,81,524.2,80.7z"/>
	<path fill="rgba(179,189,222,0.2)" d="M372.7,113.7c-1.1-0.4-1.8-0.7-2.5-1c0.3-0.5,0.6-1,0.9-1.4c0.2-0.3,0.4-0.6,0.7-0.7
		c0.5-0.2,1.1-0.4,1.7-0.5c0.1,0.8,0.5,1.6,0.3,2.3C373.7,112.9,373,113.4,372.7,113.7z"/>
	<path fill="rgba(179,189,222,0.2)" d="M509.9,95.4c0-1-0.2-1.6,0-2c0.3-0.6,0.8-1.2,1.4-1.4c0.4-0.1,1.1,0.6,1.3,1.1c0.2,0.4-0.1,1.1-0.3,1.7
		c-0.1,0.3-0.4,0.5-0.7,0.7c-0.5,0.4-0.9,0.8-1.4,1.2C510.1,96.2,510,95.6,509.9,95.4z"/>
	<path fill="rgba(179,189,222,0.2)" d="M718.9,151.4c-0.1,0.2-0.3,1.2-0.8,1.4c-0.6,0.2-1.5-0.2-2.2-0.4c0.2-0.6,0.4-1.1,0.7-1.7
		c0.2-0.4,0.6-0.7,1-1c0.3-0.2,0.7-0.4,1-0.6c0.1,0.4,0.2,0.9,0.3,1.3C718.9,150.6,718.9,150.8,718.9,151.4z"/>
	<path fill="rgba(179,189,222,0.2)" d="M222.1,107.9c0.1,0.1,0.7,0.2,0.8,0.5c0.1,0.4-0.1,1-0.4,1.3c-0.5,0.7-1.1,1.2-1.7,1.8
		c-0.2,0.2-0.6,0.2-0.8,0.4c0-0.3,0-0.7,0-1c0-0.5,0.1-1,0-1.5C219.7,107.9,220.6,107.8,222.1,107.9z"/>
	<path fill="rgba(179,189,222,0.2)" d="M345.4,130c-1,0.7-1.8,1.6-2.7,1.8c-0.4,0.1-1.4-0.8-1.7-1.4c-0.3-0.6,2-1.7,3.1-1.5
		C344.5,129,344.8,129.4,345.4,130z"/>
	<path fill="rgba(179,189,222,0.2)" d="M491.8,126.2c0,0.1,0,0.3,0,0.3c-1,1.1-2.1,2.1-3.2,3.1c-0.1,0.1-0.7-0.4-1-0.7c-0.2-0.3-0.3-0.9-0.2-1
		c1.2-0.8,2.3-1.5,3.6-2.1C491.1,125.8,491.5,126.1,491.8,126.2z"/>
	<path fill="rgba(179,189,222,0.2)" d="M520.3,106.9c0.3,0.1,0.9,0.4,1.5,0.7c-0.8,0.8-1.6,1.6-2.4,2.3c-0.5-0.6-1.3-1.1-1.4-1.8
		C517.7,106.4,519.1,107,520.3,106.9z"/>
	<path fill="rgba(179,189,222,0.2)" d="M108.8,99.5c0.2-0.5,0.3-1.4,0.7-1.5c0.4-0.2,1.1,0.3,1.6,0.6c0.9,0.5,0.8,1.1,0,1.7
		c-0.6,0.5-1.1,1-1.7,1.6C109.2,101.1,109.1,100.4,108.8,99.5z"/>
	<path fill="rgba(179,189,222,0.2)" d="M535.9,90.9c0,1.4-1.6,2.8-3.1,3c-0.3,0-0.5-0.3-0.8-0.4c1.1-1.2,2.3-2.4,3.4-3.5
		C535.6,90.3,535.8,90.7,535.9,90.9z"/>
	<path fill="rgba(179,189,222,0.2)" d="M368.5,129.3c-1.5,1-2.5,1.7-3.4,2.3c-0.4-0.6-0.8-1.3-1.2-1.9c0.5-0.3,1-0.7,1.5-0.7
		C366.2,128.9,367.1,129.1,368.5,129.3z"/>
	<path fill="rgba(179,189,222,0.2)" d="M376.2,132.3c-0.6,0.2-1.1,0.5-1.6,0.6c-0.8,0.1-1.9,0.1-1.6-1.1c0.2-0.8,1.3-1.3,1.9-1.9
		C375.3,130.6,375.7,131.3,376.2,132.3z"/>
	<path fill="rgba(179,189,222,0.2)" d="M548.4,373.9c0.2,0.2,0.5,0.4,0.5,0.6c0.1,0.3,0.1,0.8-0.1,0.9c-1.1,0.8-1.6,2.6-3.4,2.4
		c-0.2,0-0.3,0-0.5,0c0.8-1,1.6-1.9,2.4-2.9C547.7,374.6,548,374.3,548.4,373.9z"/>
	<path fill="rgba(179,189,222,0.2)" d="M334.5,41.9c-1.4,1.3-2.2,2.1-3.1,3c-0.2-0.3-0.5-0.5-0.4-0.8c0.1-0.8-0.6-2.1,1-2.2
		C332.6,41.9,333.2,41.9,334.5,41.9z"/>
	<path fill="rgba(179,189,222,0.2)" d="M723.8,113.1c-0.8-0.2-1.2-0.4-1.7-0.5c0.2-0.3,0.4-0.7,0.6-1c0.1-0.1,0.2-0.3,0.3-0.3
		c0.6-0.3,1.1-0.7,1.7-1c0,0.5,0.3,1,0.1,1.4C724.6,112.2,724.1,112.6,723.8,113.1z"/>
	<path fill="rgba(179,189,222,0.2)" d="M646,280.3c-0.8,0.7-1.4,1.5-2.2,2.1c-0.1,0.1-0.8-0.2-0.8-0.3c0-0.6-0.2-1.6,0.2-1.8
		c0.6-0.4,1.5-0.3,2.3-0.4C645.6,279.9,645.8,280.2,646,280.3z"/>
	<path fill="rgba(179,189,222,0.2)" d="M641.9,42.4c-0.2,0.2-0.4,0.5-0.7,0.7c-0.7,0.5-1.4,1-2.1,1.5c-0.1-0.1-0.2-0.3-0.2-0.4c0-1.3,0.8-2,2-2.3
		c0.3-0.1,0.7,0,1,0C641.9,41.9,641.9,42.2,641.9,42.4z"/>
	<path fill="rgba(179,189,222,0.2)" d="M186.1,58.3c-0.9,0.9-1.8,1.7-2.6,2.6c-0.2-0.3-0.5-0.7-0.5-0.7c0.6-0.8,1.3-1.5,2-2.2
		C185.1,57.8,185.5,58.1,186.1,58.3z"/>
	<path fill="rgba(179,189,222,0.2)" d="M526,101.1c-0.6-0.4-0.8-0.5-1.1-0.7c0.8-0.8,1.6-1.6,2.4-2.3c0,0,0.4,0.2,0.6,0.4c0.1,0.1,0.1,0.4,0,0.5
		C527.3,99.7,526.6,100.4,526,101.1z"/>
	<path fill="rgba(179,189,222,0.2)" d="M744.4,335.9c-0.2-0.3-0.5-0.7-0.5-0.7c0.6-0.8,1.3-1.5,2-2.2c0.1-0.1,0.4-0.1,0.5,0
		c0.2,0.2,0.4,0.6,0.4,0.6C746,334.3,745.2,335.1,744.4,335.9z"/>
	<path fill="rgba(179,189,222,0.2)" d="M722.2,353.5c0.4,0.8,0.7,1.1,0.6,1.5c0,0.7,0.5,1.7-0.7,1.9c-0.4,0.1-0.8-0.3-1.2-0.5
		C721.3,355.6,721.7,354.7,722.2,353.5z"/>
	<path fill="rgba(179,189,222,0.2)" d="M354.4,42.1c-0.2-0.6-0.5-1-0.4-1.1c0.5-0.7,1.1-1.2,1.6-1.8c0.1,0.3,0.4,0.6,0.3,0.8
		C355.5,40.6,355,41.2,354.4,42.1z"/>
	<path fill="rgba(179,189,222,0.2)" d="M189.1,294.9c-0.2,0.3-0.5,0.9-1,1.3c-0.2,0.2-0.7,0.2-1,0.3c0-0.3-0.2-0.7-0.1-0.9c0.3-0.5,0.7-1,1.2-1.4
		c0.1-0.1,0.4,0,0.7,0C188.9,294.3,188.9,294.5,189.1,294.9z"/>
	<path fill="rgba(179,189,222,0.2)" d="M691,132.7c0.4,0.3,0.7,0.3,0.7,0.4c0,0.2,0,0.6-0.2,0.7c-0.5,0.4-1,0.8-1.6,1c-0.3,0.1-0.7,0-1,0
		c0,0-0.1-0.4,0-0.5C689.6,133.8,690.4,133.2,691,132.7z"/>
	<path fill="rgba(179,189,222,0.2)" d="M353,142.3c-0.2,0.1-0.6,0.5-1.1,0.6c-0.2,0-0.5-0.4-0.7-0.7c0.6-0.4,1.2-0.9,1.8-1.3
		C353,141.2,353,141.5,353,142.3z"/>
	<path fill="rgba(179,189,222,0.2)" d="M350.8,36.5c-0.5,0.5-0.9,0.9-1.3,1.4c-0.2-0.4-0.6-1-0.4-1.2c0.3-0.4,0.9-0.6,1.4-0.8
		C350.5,35.9,350.7,36.3,350.8,36.5z"/>
	<path fill="rgba(179,189,222,0.2)" d="M437.1,102.3c-0.5,0.2-0.9,0.5-1.4,0.5c-0.2,0-0.5-0.3-0.7-0.5c0.6-0.4,1.1-0.9,1.7-1.3
		C436.7,101.4,436.8,101.7,437.1,102.3z"/>
	<path fill="rgba(179,189,222,0.2)" d="M317.5,25.7c-0.1-0.1-0.5-0.3-0.5-0.3c0.2-0.5,0.4-1.1,0.8-1.4c0.1-0.1,0.8,0.3,1.2,0.4
		C318.5,24.8,318,25.3,317.5,25.7z"/>
	<path fill="rgba(179,189,222,0.2)" d="M661,265.4c-0.6,0.5-1.2,0.9-1.7,1.4c-0.1-0.3-0.3-0.5-0.4-0.8c-0.1-1.2,0.7-1.2,1.5-1.1
		C660.6,264.9,660.8,265.2,661,265.4z"/>
	<path fill="rgba(179,189,222,0.2)" d="M661.6,262.7c0.7,0.3,0.9,0.4,1.2,0.6c-0.5,0.5-0.9,1.1-1.4,1.6c-0.2-0.2-0.5-0.4-0.4-0.5
		C661.1,263.8,661.4,263.3,661.6,262.7z"/>
	<path fill="rgba(179,189,222,0.2)" d="M77.1,297.3c-0.4,0.2-0.9,0.5-1.4,0.6c-0.2,0-0.5-0.3-0.8-0.4c0.6-0.4,1.1-0.9,1.7-1.3
		C76.8,296.3,76.9,296.6,77.1,297.3z"/>
	<path fill="rgba(179,189,222,0.2)" d="M540.9,383.2c-0.2,0.1-0.6,0.5-1.1,0.6c-0.2,0-0.5-0.4-0.7-0.7c0.6-0.4,1.2-0.9,1.8-1.3
		C540.9,382.2,540.9,382.5,540.9,383.2z"/>
	<path fill="rgba(179,189,222,0.2)" d="M400.9,61.1c-0.2,0.4-0.4,0.8-0.5,0.8c-0.4,0-0.9-0.2-1.3-0.3c0.1-0.2,0.2-0.6,0.4-0.6
		C399.9,60.9,400.4,61,400.9,61.1z"/>
	<path fill="rgba(179,189,222,0.2)" d="M351.2,33.4c-0.3,0.8-0.4,1-0.5,1.3c-0.2-0.3-0.5-0.5-0.6-0.9c-0.1-0.2,0.2-0.5,0.3-0.8
		C350.7,33.2,351,33.4,351.2,33.4z"/>
	<path fill="rgba(179,189,222,0.2)" d="M680.9,187.3c-0.2,0.2-0.4,0.3-0.6,0.5c-0.1-0.2-0.2-0.6-0.2-0.6c0.2-0.2,0.5-0.2,0.8-0.3
		C680.9,187,680.9,187.2,680.9,187.3z"/>
	<path fill="rgba(179,189,222,0.2)" d="M420.9,95.4c-0.2,0.2-0.4,0.3-0.6,0.5c-0.1-0.2-0.2-0.6-0.2-0.6c0.2-0.2,0.5-0.2,0.8-0.3
		C420.9,95.1,420.9,95.2,420.9,95.4z"/>
	<path fill="rgba(179,189,222,0.2)" d="M659.9,196.9c-0.3,0.3-0.7,0.7-1,1C659.3,197.6,659.6,197.2,659.9,196.9z"/>
	<path fill="rgba(179,189,222,0.2)" d="M403.1,60.6c0.1-0.2,0.2-0.4,0.4-0.6c0.1,0.1,0.3,0.2,0.3,0.3c-0.1,0.2-0.2,0.4-0.3,0.7
		C403.3,60.8,403.2,60.7,403.1,60.6z"/>
	<path fill="rgba(179,189,222,0.2)" d="M78.6,283c0.1,0.1,0.3,0.3,0.3,0.3c-0.1,0.2-0.3,0.4-0.4,0.6c-0.1-0.1-0.3-0.3-0.4-0.4
		C78.2,283.3,78.4,283.1,78.6,283z"/>
	<path fill="rgba(179,189,222,0.2)" d="M413.5,69c0.1,0.1,0.3,0.3,0.3,0.3c-0.1,0.2-0.3,0.4-0.4,0.6c-0.1-0.1-0.3-0.3-0.4-0.4
		C413.1,69.3,413.3,69.1,413.5,69z"/>
	<path fill="rgba(179,189,222,0.2)" d="M628.9,285.9c-0.3,0.3-0.7,0.7-1,1C628.3,286.5,628.6,286.2,628.9,285.9z"/>
	<path fill="rgba(179,189,222,0.2)" d="M412.9,69.9c-0.3,0.3-0.7,0.7-1,1C412.3,70.6,412.6,70.2,412.9,69.9z"/>
	<path fill="rgba(179,189,222,0.2)" d="M626.5,274c0.1,0.1,0.3,0.3,0.3,0.3c-0.1,0.2-0.3,0.4-0.4,0.6c-0.1-0.1-0.3-0.3-0.4-0.4
		C626.1,274.3,626.3,274.1,626.5,274z"/>
	<path fill="rgba(179,189,222,0.2)" d="M647.5,278c0.1,0.1,0.3,0.3,0.3,0.3c-0.1,0.2-0.3,0.4-0.4,0.6c-0.1-0.1-0.3-0.3-0.4-0.4
		C647.1,278.3,647.3,278.1,647.5,278z"/>
	<path fill="rgba(179,189,222,0.2)" d="M231,296.3c-0.2,0.2-0.4,0.3-0.6,0.5c-0.1-0.2-0.2-0.6-0.2-0.6c0.2-0.2,0.5-0.2,0.8-0.3
		C231,296,231,296.2,231,296.3z"/>
	<path fill="rgba(179,189,222,0.2)" d="M54,297.3c-0.2,0.2-0.4,0.3-0.6,0.5c-0.1-0.2-0.2-0.6-0.2-0.6c0.2-0.2,0.5-0.2,0.8-0.3
		C54,297,54,297.2,54,297.3z"/>
	<path fill="rgba(179,189,222,0.2)" d="M606.5,77c0.1,0.1,0.3,0.3,0.3,0.3c-0.1,0.2-0.3,0.4-0.4,0.6c-0.1-0.1-0.3-0.3-0.4-0.4
		C606.1,77.3,606.3,77.1,606.5,77z"/>
	<path fill="rgba(179,189,222,0.2)" d="M332,30.4c-0.2,0.2-0.4,0.3-0.6,0.5c-0.1-0.2-0.2-0.6-0.2-0.6c0.2-0.2,0.5-0.2,0.8-0.3
		C332,30.1,332,30.2,332,30.4z"/>
	<path fill="rgba(179,189,222,0.2)" d="M47.6,303c0.1,0.1,0.3,0.3,0.3,0.3c-0.1,0.2-0.3,0.4-0.4,0.6c-0.1-0.1-0.3-0.3-0.4-0.4
		C47.2,303.3,47.4,303.1,47.6,303z"/>
	<path fill="rgba(179,189,222,0.2)" d="M332.5,29c0.1,0.1,0.3,0.3,0.3,0.3c-0.1,0.2-0.3,0.4-0.4,0.6c-0.1-0.1-0.3-0.3-0.4-0.4
		C332.2,29.3,332.3,29.2,332.5,29z"/>
	<path fill="rgba(179,189,222,0.2)" d="M707.8,28.3c-0.1,0.2-0.2,0.4-0.4,0.6c-0.1-0.1-0.3-0.2-0.3-0.3c0.1-0.2,0.2-0.4,0.3-0.7
		C707.5,28,707.6,28.1,707.8,28.3z"/>
	<path fill="rgba(179,189,222,0.2)" d="M353.5,140c0.1,0.1,0.3,0.3,0.3,0.3c-0.1,0.2-0.3,0.4-0.4,0.6c-0.1-0.1-0.3-0.3-0.4-0.4
		C353.2,140.3,353.3,140.1,353.5,140z"/>
	<path fill="rgba(179,189,222,0.2)" d="M605.9,78.4c-0.2,0.2-0.4,0.3-0.6,0.5c-0.1-0.2-0.2-0.6-0.2-0.6c0.2-0.2,0.5-0.2,0.8-0.3
		C605.9,78.1,605.9,78.2,605.9,78.4z"/>
	<path fill="rgba(179,189,222,0.2)" d="M245,307.3c-0.2,0.2-0.4,0.3-0.6,0.5c-0.1-0.2-0.2-0.6-0.2-0.6c0.2-0.2,0.5-0.2,0.8-0.3
		C245,307,245,307.2,245,307.3z"/>
	<path fill="rgba(179,189,222,0.2)" d="M265.5,143c0.1,0.1,0.3,0.3,0.3,0.3c-0.1,0.2-0.3,0.4-0.4,0.6c-0.1-0.1-0.3-0.3-0.4-0.4
		C265.2,143.3,265.4,143.1,265.5,143z"/>
	<path fill="rgba(179,189,222,0.2)" d="M339.1,143.3c0.1-0.1,0.2-0.2,0.4-0.4c0.1,0.2,0.3,0.4,0.3,0.7c0,0.1-0.2,0.2-0.3,0.3
		C339.3,143.7,339.2,143.5,339.1,143.3z"/>
	<path fill="rgba(179,189,222,0.2)" d="M712.9,23.4c-0.2,0.2-0.4,0.3-0.6,0.5c-0.1-0.2-0.2-0.6-0.2-0.6c0.2-0.2,0.5-0.2,0.8-0.3
		C712.9,23.1,712.9,23.2,712.9,23.4z"/>
	<path fill="rgba(179,189,222,0.2)" d="M389.5,118c0.1,0.1,0.3,0.3,0.3,0.3c-0.1,0.2-0.3,0.4-0.4,0.6c-0.1-0.1-0.3-0.3-0.4-0.4
		C389.1,118.3,389.3,118.1,389.5,118z"/>
	<path fill="rgba(179,189,222,0.2)" d="M713.5,22c0.1,0.1,0.3,0.3,0.3,0.3c-0.1,0.2-0.3,0.4-0.4,0.6c-0.1-0.1-0.3-0.3-0.4-0.4
		C713.1,22.3,713.3,22.2,713.5,22z"/>
	<path fill="rgba(179,189,222,0.2)" d="M603.4,79.9c0.1,0.2,0.3,0.4,0.3,0.7c0,0.1-0.2,0.2-0.3,0.3c-0.1-0.2-0.3-0.4-0.3-0.7
		C603.1,80.2,603.3,80,603.4,79.9z"/>
	<path fill="rgba(179,189,222,0.2)" d="M235.3,118.8c-0.1-0.1-0.2-0.2-0.4-0.4c0.2-0.1,0.4-0.3,0.7-0.3c0.1,0,0.2,0.2,0.3,0.3
		C235.8,118.5,235.5,118.6,235.3,118.8z"/>
	<path fill="rgba(179,189,222,0.2)" d="M25,230.3c-0.2,0.2-0.4,0.3-0.6,0.5c-0.1-0.2-0.2-0.6-0.2-0.6c0.2-0.2,0.5-0.2,0.8-0.3
		C25,230,25,230.2,25,230.3z"/>
	<path fill="rgba(179,189,222,0.2)" d="M268,324.9c0.3-0.3,0.7-0.7,1-1C268.6,324.2,268.3,324.5,268,324.9z"/>
	<path fill="rgba(179,189,222,0.2)" d="M268,325.3c-0.2,0.2-0.4,0.3-0.6,0.5c-0.1-0.2-0.2-0.6-0.2-0.6c0.2-0.2,0.5-0.2,0.8-0.3
		C268,325,268,325.2,268,325.3z"/>
	<path fill="rgba(179,189,222,0.2)" d="M537.4,87.9c0.1,0.2,0.3,0.4,0.3,0.7c0,0.1-0.2,0.2-0.3,0.3c-0.1-0.2-0.3-0.4-0.3-0.7
		C537.1,88.2,537.3,88,537.4,87.9z"/>
	<path fill="rgba(179,189,222,0.2)" d="M26,228.9c-0.3,0.3-0.7,0.7-1,1C25.3,229.6,25.7,229.2,26,228.9z"/>
	<path fill="rgba(179,189,222,0.2)" d="M26.6,228c0.1,0.1,0.3,0.3,0.3,0.3c-0.1,0.2-0.3,0.4-0.4,0.6c-0.1-0.1-0.3-0.3-0.4-0.4
		C26.2,228.3,26.4,228.1,26.6,228z"/>
	<path fill="rgba(179,189,222,0.2)" d="M93.6,106c0.1,0.1,0.3,0.3,0.3,0.3c-0.1,0.2-0.3,0.4-0.4,0.6c-0.1-0.1-0.3-0.3-0.4-0.4
		C93.2,106.3,93.4,106.1,93.6,106z"/>
	<path fill="rgba(179,189,222,0.2)" d="M404.9,103.4c-0.2,0.1-0.4,0.3-0.7,0.3c-0.1,0-0.2-0.2-0.3-0.3c0.2-0.1,0.4-0.3,0.7-0.3
		C404.7,103.1,404.8,103.3,404.9,103.4z"/>
	<path fill="rgba(179,189,222,0.2)" d="M554.9,335.3c-0.2,0.2-0.4,0.3-0.6,0.5c-0.1-0.2-0.2-0.6-0.2-0.6c0.2-0.2,0.5-0.2,0.8-0.3
		C554.9,335,554.9,335.2,554.9,335.3z"/>
	<path fill="rgba(179,189,222,0.2)" d="M702.5,0c0.1,0.1,0.3,0.3,0.3,0.3c-0.1,0.2-0.3,0.4-0.4,0.6c-0.1-0.1-0.3-0.3-0.4-0.4
		C702.1,0.3,702.3,0.2,702.5,0z"/>
	<path fill="rgba(179,189,222,0.2)" d="M415.9,91.9c-0.3,0.3-0.7,0.7-1,1C415.3,92.6,415.6,92.2,415.9,91.9z"/>
	<path fill="rgba(179,189,222,0.2)" d="M49,206.3c-0.2,0.2-0.4,0.3-0.6,0.5c-0.1-0.2-0.2-0.6-0.2-0.6c0.2-0.2,0.5-0.2,0.8-0.3
		C49,206,49,206.2,49,206.3z"/>
	<path fill="rgba(179,189,222,0.2)" d="M414.9,93.4c-0.2,0.2-0.4,0.3-0.6,0.5c-0.1-0.2-0.2-0.6-0.2-0.6c0.2-0.2,0.5-0.2,0.8-0.3
		C414.9,93.1,414.9,93.2,414.9,93.4z"/>
	<path fill="rgba(179,189,222,0.2)" d="M351,135.4c-0.2,0.1-0.4,0.3-0.7,0.3c-0.1,0-0.2-0.2-0.3-0.3c0.2-0.1,0.4-0.3,0.7-0.3
		C350.7,135.1,350.8,135.3,351,135.4z"/>
	<path fill="rgba(179,189,222,0.2)" d="M714.6,131c0.1,0.1,0.2,0.2,0.4,0.4c-0.2,0.1-0.4,0.3-0.7,0.3c-0.1,0-0.2-0.2-0.3-0.3
		C714.1,131.3,714.3,131.2,714.6,131z"/>
	<path fill="rgba(179,189,222,0.2)" d="M729.8,347.5c-0.1,0.1-0.2,0.2-0.4,0.4c-0.1-0.2-0.3-0.4-0.3-0.7c0-0.1,0.2-0.2,0.3-0.3
		C729.5,347.1,729.6,347.3,729.8,347.5z"/>
	<path fill="rgba(179,189,222,0.2)" d="M334.5,85c0.1,0.1,0.3,0.3,0.3,0.3c-0.1,0.2-0.3,0.4-0.4,0.6c-0.1-0.1-0.3-0.3-0.4-0.4
		C334.2,85.3,334.3,85.1,334.5,85z"/>
	<path fill="rgba(179,189,222,0.2)" d="M291.6,103.8c-0.2-0.1-0.4-0.2-0.6-0.4c0.1-0.1,0.2-0.3,0.3-0.3c0.2,0.1,0.4,0.2,0.7,0.3
		C291.9,103.5,291.7,103.6,291.6,103.8z"/>
	<path fill="rgba(179,189,222,0.2)" d="M220,111.9c-0.3,0.3-0.7,0.7-1,1C219.3,112.6,219.6,112.2,220,111.9z"/>
	<path fill="rgba(179,189,222,0.2)" d="M589.9,94.4c-0.2,0.2-0.4,0.3-0.6,0.5c-0.1-0.2-0.2-0.6-0.2-0.6c0.2-0.2,0.5-0.2,0.8-0.3
		C589.9,94.1,589.9,94.2,589.9,94.4z"/>
	<path fill="rgba(179,189,222,0.2)" d="M375.5,129c0.1,0.1,0.3,0.3,0.3,0.3c-0.1,0.2-0.3,0.4-0.4,0.6c-0.1-0.1-0.3-0.3-0.4-0.4
		C375.1,129.3,375.3,129.1,375.5,129z"/>
	<path fill="rgba(179,189,222,0.2)" d="M278.5,97c0.1,0.1,0.3,0.3,0.3,0.3c-0.1,0.2-0.3,0.4-0.4,0.6c-0.1-0.1-0.3-0.3-0.4-0.4
		C278.2,97.3,278.4,97.1,278.5,97z"/>
	<path fill="rgba(179,189,222,0.2)" d="M544.9,378.3c-0.2,0.2-0.4,0.3-0.6,0.5c-0.1-0.2-0.2-0.6-0.2-0.6c0.2-0.2,0.5-0.2,0.8-0.3
		C544.9,378,544.9,378.2,544.9,378.3z"/>
	<path fill="rgba(179,189,222,0.2)" d="M541.5,381c0.1,0.1,0.3,0.3,0.3,0.3c-0.1,0.2-0.3,0.4-0.4,0.6c-0.1-0.1-0.3-0.3-0.4-0.4
		C541.1,381.3,541.3,381.1,541.5,381z"/>
	<path fill="rgba(179,189,222,0.2)" d="M699.1,182.3c0.1-0.1,0.2-0.2,0.4-0.4c0.1,0.2,0.3,0.4,0.3,0.7c0,0.1-0.2,0.2-0.3,0.3
		C699.3,182.7,699.2,182.5,699.1,182.3z"/>
	<path fill="rgba(179,189,222,0.2)" d="M681.5,186c0.1,0.1,0.3,0.3,0.3,0.3c-0.1,0.2-0.3,0.4-0.4,0.6c-0.1-0.1-0.3-0.3-0.4-0.4
		C681.1,186.3,681.3,186.1,681.5,186z"/>
	<path fill="rgba(179,189,222,0.2)" d="M650.5,385c0.1,0.1,0.3,0.3,0.3,0.3c-0.1,0.2-0.3,0.4-0.4,0.6c-0.1-0.1-0.3-0.3-0.4-0.4
		C650.1,385.3,650.3,385.1,650.5,385z"/>
	<path fill="rgba(179,189,222,0.2)" d="M372,386.3c-0.2,0.2-0.4,0.3-0.6,0.5c-0.1-0.2-0.2-0.6-0.2-0.6c0.2-0.2,0.5-0.2,0.8-0.3
		C372,386,372,386.2,372,386.3z"/>
	<path fill="rgba(179,189,222,0.2)" d="M649.9,386.3c-0.2,0.2-0.4,0.3-0.6,0.5c-0.1-0.2-0.2-0.6-0.2-0.6c0.2-0.2,0.5-0.2,0.8-0.3
		C649.9,386,649.9,386.2,649.9,386.3z"/>
	<path fill="rgba(179,189,222,0.2)" d="M645.9,279.9c0.3-0.3,0.7-0.7,1-1C646.6,279.2,646.3,279.6,645.9,279.9z"/>
	<path fill="rgba(179,189,222,0.2)" d="M495.9,393.9c-0.3,0.3-0.7,0.7-1,1C495.3,394.5,495.6,394.2,495.9,393.9z"/>
	<path fill="rgba(179,189,222,0.2)" d="M493.9,395.9c0.3-0.3,0.7-0.7,1-1C494.6,395.2,494.3,395.5,493.9,395.9z"/>
	<path fill="rgba(179,189,222,0.2)" d="M493.9,396.3c-0.2,0.2-0.4,0.3-0.6,0.5c-0.1-0.2-0.2-0.6-0.2-0.6c0.2-0.2,0.5-0.2,0.8-0.3
		C493.9,396,493.9,396.2,493.9,396.3z"/>
	<path fill="rgba(179,189,222,0.2)" d="M658.9,197.9c-0.3,0.3-0.7,0.7-1,1C658.3,198.6,658.6,198.2,658.9,197.9z"/>
</g>
</svg>
