<?xml version="1.0" encoding="utf-8"?>
<!-- Generator: Adobe Illustrator 17.1.0, SVG Export Plug-In . SVG Version: 6.00 Build 0)  -->
<!DOCTYPE svg PUBLIC "-//W3C//DTD SVG 1.1//EN" "http://www.w3.org/Graphics/SVG/1.1/DTD/svg11.dtd">
<svg version="1.1" id="Layer_1" xmlns="http://www.w3.org/2000/svg" xmlns:xlink="http://www.w3.org/1999/xlink" x="0px" y="0px"
	 viewBox="0 0 178 91" enable-background="new 0 0 178 91" xml:space="preserve">
<g>
	<rect x="24" y="11" fill="#FFFFFF" width="3" height="80"/>
	<rect x="27" y="11" fill="#FFFFFF" width="4" height="3"/>
	<rect x="31" y="6" fill="#FFFFFF" width="3" height="13"/>
	<rect x="34" y="6" fill="#FFFFFF" width="47" height="3"/>
	<rect x="78" y="9" fill="#FFFFFF" width="3" height="10"/>
	<rect x="34" y="16" fill="#FFFFFF" width="44" height="3"/>
	<rect x="81" y="11" fill="#FFFFFF" width="7" height="3"/>
	<rect x="48" fill="#FFFFFF" width="17" height="3"/>
	<rect x="62" y="3" fill="#FFFFFF" width="3" height="3"/>
	<rect x="48" y="3" fill="#FFFFFF" width="3" height="3"/>
	<rect x="85" y="14" fill="#FFFFFF" width="3" height="77"/>
	<rect x="27" y="88" fill="#FFFFFF" width="58" height="3"/>
	<rect x="91" y="19" fill="#FFFFFF" width="14" height="16"/>
	<rect x="91" y="37" fill="#FFFFFF" width="26" height="16"/>
	<rect x="91" y="55" fill="#FFFFFF" width="14" height="16"/>
	<path fill="#FFFFFF" d="M107,19v16h22V19H107z M111,33h-2V21h2V33z M115,33h-2V21h2V33z M119,33h-2V21h2V33z M123,33h-2V21h2V33z
		 M127,33h-2V21h2V33z"/>
	<path fill="#FFFFFF" d="M119,37v16h22V37L119,37L119,37z M123,51h-2V39h2V51z M127,51h-2V39h2V51z M131,51h-2V39h2V51z M135,51h-2
		V39h2V51z M139,51h-2V39h2V51z"/>
	<path fill="#FFFFFF" d="M107,55v16h22V55H107z M111,69h-2V57h2V69z M115,69h-2V57h2V69z M119,69h-2V57h2V69z M123,69h-2V57h2V69z
		 M127,69h-2V57h2V69z"/>
	<path fill="#FFFFFF" d="M131,55v16h22V55H131z M135,69h-2V57h2V69z M139,69h-2V57h2V69z M143,69h-2V57h2V69z M147,69h-2V57h2V69z
		 M151,69h-2V57h2V69z"/>
	<g>
		<g>
			<rect y="74" fill="#FF0000" width="21" height="3"/>
			<rect x="91" y="74" fill="#FF0000" width="87" height="3"/>
			<polygon fill="#FFFFFF" points="78,19 78,36 34,36 34,19 31,19 31,77 81,77 81,19 			"/>
		</g>
		<g>
			<g>
				<rect x="31" y="80" fill="#FFFFFF" width="50" height="3"/>
				<rect y="80" fill="#FFFFFF" width="21" height="3"/>
				<rect x="91" y="80" fill="#FFFFFF" width="87" height="3"/>
			</g>
		</g>
		<g>
			<rect y="86" fill="#FFFFFF" width="21" height="3"/>
			<rect x="91" y="86" fill="#FFFFFF" width="87" height="3"/>
		</g>
	</g>
</g>
</svg>
