<?xml version="1.0" encoding="utf-8"?>
<!-- Generator: Adobe Illustrator 17.1.0, SVG Export Plug-In . SVG Version: 6.00 Build 0)  -->
<!DOCTYPE svg PUBLIC "-//W3C//DTD SVG 1.1//EN" "http://www.w3.org/Graphics/SVG/1.1/DTD/svg11.dtd">
<svg version="1.1" id="Layer_1" xmlns="http://www.w3.org/2000/svg" xmlns:xlink="http://www.w3.org/1999/xlink" x="0px" y="0px"
	 viewBox="0 0 177 86" enable-background="new 0 0 177 86" xml:space="preserve">
<g>
	<rect x="94" y="50" fill="#FFFFFF" width="22" height="16"/>
	<rect x="118" y="50" fill="#FFFFFF" width="22" height="16"/>
	<rect x="82" y="32" fill="#FFFFFF" width="22" height="16"/>
	<path fill="#FFFFFF" d="M94,14v16h22V14H94z M98,28h-2V16h2V28z M102,28h-2V16h2V28z M106,28h-2V16h2V28z M110,28h-2V16h2V28z
		 M114,28h-2V16h2V28z"/>
	<path fill="#FFFFFF" d="M106,32v16h22V32H106z M110,46h-2V34h2V46z M114,46h-2V34h2V46z M118,46h-2V34h2V46z M122,46h-2V34h2V46z
		 M126,46h-2V34h2V46z"/>
	<path fill="#FFFFFF" d="M70,14v16h22V14H70z M74,28h-2V16h2V28z M78,28h-2V16h2V28z M82,28h-2V16h2V28z M86,28h-2V16h2V28z M90,28
		h-2V16h2V28z"/>
	<path fill="#FFFFFF" d="M58,32v16h22V32H58z M62,46h-2V34h2V46z M66,46h-2V34h2V46z M70,46h-2V34h2V46z M74,46h-2V34h2V46z M78,46
		h-2V34h2V46z"/>
	<path fill="#FFFFFF" d="M70,50v16h22V50H70z M74,64h-2V52h2V64z M78,64h-2V52h2V64z M82,64h-2V52h2V64z M86,64h-2V52h2V64z M90,64
		h-2V52h2V64z"/>
	<path fill="#FFFFFF" d="M46,50v16h22V50H46z M50,64h-2V52h2V64z M54,64h-2V52h2V64z M58,64h-2V52h2V64z M62,64h-2V52h2V64z M66,64
		h-2V52h2V64z"/>
	<polygon fill="#FFFFFF" points="35,12 35,0 44,4 37,6.8 37,12 	"/>
	<path fill="#FFFFFF" d="M44,70V12H30v20H18v20H1.9L27,79h130l4-9H44z M42,28v4h-4v-4H42z M38,26v-4h4v4H38z M42,34v4h-4v-4H42z
		 M42,40v4h-4v-4H42z M32,14h10v6H32V14z M32,22h4v4h-4V22z M32,28h4v4h-4V28z M32,34h4v4h-4V34z M32,40h4v4h-4V40z M26,34h4v4h-4
		V34z M26,40h4v4h-4V40z M20,34h4v4h-4V34z M20,40h4v4h-4V40z"/>
	<rect x="142" y="50" fill="#FFFFFF" width="22" height="16"/>
	<rect x="0" y="83" fill="#FFFFFF" width="177" height="3"/>
	<polygon fill="#FF0000" points="23.3,75 27,79 157,79 158.8,75 	"/>
</g>
</svg>
