<?xml version="1.0" encoding="utf-8"?>
<!-- Generator: Adobe Illustrator 17.1.0, SVG Export Plug-In . SVG Version: 6.00 Build 0)  -->
<!DOCTYPE svg PUBLIC "-//W3C//DTD SVG 1.1//EN" "http://www.w3.org/Graphics/SVG/1.1/DTD/svg11.dtd">
<svg version="1.1" id="Layer_1" xmlns="http://www.w3.org/2000/svg" xmlns:xlink="http://www.w3.org/1999/xlink" x="0px" y="0px"
	 viewBox="0 0 180.8 74.5" enable-background="new 0 0 180.8 74.5" xml:space="preserve">
<g>
	<g>
		<path fill="#FFFFFF" d="M171.4,8.9L136,9v8h43.2c-0.3-1.9-0.9-3.8-1.9-5C174.5,8.8,171.4,8.9,171.4,8.9z"/>
		<path fill="#FFFFFF" d="M144,52c0.6-0.4,1.2-0.8,1.9-1.1c2.3-1.3,4.8-2,7-2c2.4,0,5.1,1.1,7.1,2.2l1.1-0.1l19.6,0l-0.7-4.7L180,36
			h-2V23h1.4c0,0,0.1-1.3,0-3H136v32h7.9L144,52z M151,22h25v14h-25V22z M142,22h7v14h-7V22z"/>
	</g>
	<path fill="#FFFFFF" d="M153.8,54c-5.7,0-10.3,4.6-10.3,10.3s4.6,10.3,10.3,10.3S164,69.9,164,64.2S159.4,54,153.8,54z M153.9,71.4
		c-3.9,0-7.1-3.2-7.1-7.1c0-3.9,3.2-7.1,7.1-7.1c3.9,0,7.1,3.2,7.1,7.1C161,68.2,157.8,71.4,153.9,71.4z"/>
	<path fill="#FFFFFF" d="M162.5,54c-1.3-1.5-5.5-4-9.3-4c-2,0-4.3,0.5-6.3,1.7c-4.4,2.1-7.5,6.4-7.6,12c0,1.5,0,2.4,0,2.4h3.6
		c-0.1-0.6-0.2-1.2-0.2-1.8c0-6,4.9-10.9,10.9-10.9c6,0,10.9,4.9,10.9,10.9c0,0.6-0.1,1.2-0.2,1.8h0.5h1.1l0-2h7.9v2h4l2-2V54H162.5
		z"/>
	<path fill="#FFFFFF" d="M56.8,54c-5.7,0-10.3,4.6-10.3,10.3s4.6,10.3,10.3,10.3S67,69.9,67,64.2S62.4,54,56.8,54z M56.9,71.4
		c-3.9,0-7.1-3.2-7.1-7.1c0-3.9,3.2-7.1,7.1-7.1c3.9,0,7.1,3.2,7.1,7.1C64,68.2,60.8,71.4,56.9,71.4z"/>
	<path fill="#FFFFFF" d="M33.6,54c-5.7,0-10.3,4.6-10.3,10.3s4.6,10.3,10.3,10.3s10.3-4.6,10.3-10.3S39.2,54,33.6,54z M33.8,71.4
		c-3.9,0-7.1-3.2-7.1-7.1c0-3.9,3.2-7.1,7.1-7.1c3.9,0,7.1,3.2,7.1,7.1C40.8,68.2,37.7,71.4,33.8,71.4z"/>
	<g>
		<path fill="#FFFFFF" d="M130,61v-4h6v-5H6v5h18.6c2-1.8,5.2-3.7,8.9-3.7s7,1.8,8.9,3.7h5.3c2-1.8,5.2-3.8,8.9-3.8s7,1.8,8.9,3.8
			H127v4H70v4h68v-4H130z"/>
	</g>
	<g>
		<rect y="0" fill="#FFFFFF" width="134" height="3"/>
		<g>
			<rect x="86" y="6" fill="#FFFFFF" width="2" height="37"/>
			<rect x="81" y="6" fill="#FFFFFF" width="2" height="37"/>
			<rect x="91" y="6" fill="#FFFFFF" width="2" height="37"/>
			<rect x="96" y="6" fill="#FFFFFF" width="2" height="37"/>
			<rect x="76" y="6" fill="#FFFFFF" width="2" height="37"/>
			<rect x="71" y="6" fill="#FFFFFF" width="2" height="37"/>
			<rect x="111" y="6" fill="#FFFFFF" width="2" height="37"/>
			<rect x="126" y="6" fill="#FFFFFF" width="2" height="37"/>
			<rect x="101" y="6" fill="#FFFFFF" width="2" height="37"/>
			<rect x="121" y="6" fill="#FFFFFF" width="2" height="37"/>
			<rect x="131" y="6" fill="#FFFFFF" width="3" height="37"/>
			<rect x="106" y="6" fill="#FFFFFF" width="2" height="37"/>
			<rect x="116" y="6" fill="#FFFFFF" width="2" height="37"/>
			<rect x="66" y="6" fill="#FFFFFF" width="2" height="37"/>
			<rect x="51" y="6" fill="#FFFFFF" width="2" height="37"/>
			<rect x="11" y="6" fill="#FFFFFF" width="2" height="37"/>
			<rect x="16" y="6" fill="#FFFFFF" width="2" height="37"/>
			<rect x="6" y="6" fill="#FFFFFF" width="2" height="37"/>
			<rect x="61" y="6" fill="#FFFFFF" width="2" height="37"/>
			<rect x="21" y="6" fill="#FFFFFF" width="2" height="37"/>
			<rect y="47" fill="#FFFFFF" width="134" height="3"/>
			<rect y="6" fill="#FFFFFF" width="3" height="37"/>
			<rect x="46" y="6" fill="#FFFFFF" width="2" height="37"/>
			<rect x="56" y="6" fill="#FFFFFF" width="2" height="37"/>
			<rect x="26" y="6" fill="#FFFFFF" width="2" height="37"/>
			<rect x="41" y="6" fill="#FFFFFF" width="2" height="37"/>
			<rect x="36" y="6" fill="#FFFFFF" width="2" height="37"/>
			<rect x="31" y="6" fill="#FFFFFF" width="2" height="37"/>
		</g>
	</g>
	<rect y="39" fill="#FF0000" width="134" height="4"/>
</g>
</svg>
