<?xml version="1.0" encoding="utf-8"?>
<!DOCTYPE svg PUBLIC "-//W3C//DTD SVG 1.1//EN" "http://www.w3.org/Graphics/SVG/1.1/DTD/svg11.dtd">
<svg version="1.1" xmlns="http://www.w3.org/2000/svg" xmlns:xlink="http://www.w3.org/1999/xlink" x="0px" y="0px" viewBox="0 0 182 74.5" enable-background="new 0 0 182 74.5" xml:space="preserve">
<g>
	<path fill="#fff" d="M0,0v50h134V0H0z M6,46H3V4h3V46z M11,46H8V4h3V46z M16,46h-3V4h3V46z M21,46h-3V4h3V46z M26,46h-3V4h3V46z
		 M31,46h-3V4h3V46z M36,46h-3V4h3V46z M41,46h-3V4h3V46z M46,46h-3V4h3V46z M51,46h-3V4h3V46z M56,46h-3V4h3V46z M61,46h-3V4h3V46z
		 M66,46h-3V4h3V46z M71,46h-3V4h3V46z M76,46h-3V4h3V46z M81,46h-3V4h3V46z M86,46h-3V4h3V46z M91,46h-3V4h3V46z M96,46h-3V4h3V46z
		 M101,46h-3V4h3V46z M106,46h-3V4h3V46z M111,46h-3V4h3V46z M116,46h-3V4h3V46z M121,46h-3V4h3V46z M126,46h-3V4h3V46z M131,46h-3
		V4h3V46z"/>
	<path fill="#fff" d="M180.1,46.3L180,36h-2V22.8l1.4,0.3c0,0,0.6-7.8-2.2-11s-8.4-4.8-8.4-4.8s-23.9-0.9-25-0.9
		s-3.4-3.3-4.9-3.3S136,5,136,5v47l44.8-0.1L182,52L180.1,46.3z M159,33c-5.2-1-9.6-2-10-2.5c-1.1-1.3-1-1.5-1-1.5v-4.8
		c0,0,0.2-1,0.8-1.7c0.6-0.7,1.2-0.6,1.2-0.6h9V33z M176,36.1c0,0-8.5-1.4-16-2.9V22h15l1,2V36.1z"/>
	<path fill="#fff" d="M153.8,54c-5.7,0-10.3,4.6-10.3,10.3c0,5.7,4.6,10.3,10.3,10.3S164,69.9,164,64.3
		C164,58.6,159.4,54,153.8,54z M153.9,71.4c-3.9,0-7.1-3.2-7.1-7.1c0-3.9,3.2-7.1,7.1-7.1c3.9,0,7.1,3.2,7.1,7.1
		C161,68.2,157.8,71.4,153.9,71.4z"/>
	<path fill="#fff" d="M140.5,66c0,0,0.5-5.7,2.8-9.4s4.3-4.6,4.3-4.6h5.5h7c0,0,1.8,0.7,3.2,2.8c1.4,2.2,2.9,11.2,2.9,11.2H165
		c0,0,0-3.4-0.9-6c-0.9-2.6-5.3-6.7-10.3-6.7c-2.9,0-6.4,1.3-8.6,4.2c-2.2,2.8-2.7,8.5-2.7,8.5H140.5z"/>
	<g>
		<path fill="#fff" d="M162,54l0.1,3c0.8,1,1.7,2.6,2,3.3c0.3,0.8,0.6,2.5,0.7,3.6h9.1v2h4l2-2V54H162z"/>
	</g>
	<path fill="#fff" d="M56.8,54c-5.7,0-10.3,4.6-10.3,10.3c0,5.7,4.6,10.3,10.3,10.3S67,69.9,67,64.3C67,58.6,62.4,54,56.8,54z
		 M56.9,71.4c-3.9,0-7.1-3.2-7.1-7.1c0-3.9,3.2-7.1,7.1-7.1c3.9,0,7.1,3.2,7.1,7.1C64,68.2,60.8,71.4,56.9,71.4z"/>
	<path fill="#fff" d="M33.6,54c-5.7,0-10.3,4.6-10.3,10.3c0,5.7,4.6,10.3,10.3,10.3s10.3-4.6,10.3-10.3
		C43.8,58.6,39.2,54,33.6,54z M33.8,71.4c-3.9,0-7.1-3.2-7.1-7.1c0-3.9,3.2-7.1,7.1-7.1c3.9,0,7.1,3.2,7.1,7.1
		C40.8,68.2,37.7,71.4,33.8,71.4z"/>
	<g>
		<path fill="#fff" d="M130,62v-4h6v-6h-6v-2h-4v2h-24v-2h-2v2H74v-2h-2v2H44v-2h-2v2H14v-2h-2v2H6v6h18.6c2-2.8,5.2-4.7,8.9-4.7
			c3.7,0,7,1.8,8.9,4.7h5.3c2-2.8,5.2-4.7,8.9-4.7s7,1.8,8.9,4.7H72v4h-2v4h68v-4H130z M78,62h-4v-4h4V62z M84,62h-4v-4h4V62z
			 M90,62h-4v-4h4V62z M127,62h-4v-4h4V62z"/>
	</g>
</g>
</svg>
