<?xml version="1.0" encoding="utf-8"?>
<!DOCTYPE svg PUBLIC "-//W3C//DTD SVG 1.1//EN" "http://www.w3.org/Graphics/SVG/1.1/DTD/svg11.dtd">
<svg version="1.1" xmlns="http://www.w3.org/2000/svg" xmlns:xlink="http://www.w3.org/1999/xlink" x="0px" y="0px" viewBox="0 0 154 91" enable-background="new 0 0 154 91" xml:space="preserve">
<g>
	<rect y="11" fill="#fff" width="3" height="80"/>
	<rect x="3" y="11" fill="#fff" width="4" height="3"/>
	<rect x="7" y="6" fill="#fff" width="3" height="13"/>
	<rect x="10" y="6" fill="#fff" width="47" height="3"/>
	<rect x="54" y="9" fill="#fff" width="3" height="10"/>
	<rect x="10" y="16" fill="#fff" width="44" height="3"/>
	<rect x="57" y="11" fill="#fff" width="7" height="3"/>
	<rect x="24" fill="#fff" width="17" height="3"/>
	<rect x="38" y="3" fill="#fff" width="3" height="3"/>
	<rect x="24" y="3" fill="#fff" width="3" height="3"/>
	<rect x="61" y="14" fill="#fff" width="3" height="77"/>
	<rect x="3" y="88" fill="#fff" width="58" height="3"/>
	<rect x="67" y="19" fill="#fff" width="14" height="16"/>
	<rect x="67" y="37" fill="#fff" width="26" height="16"/>
	<rect x="67" y="55" fill="#fff" width="14" height="16"/>
	<rect x="67" y="73" fill="#fff" width="87" height="18"/>
	<polygon fill="#fff" points="22.9,49.2 20.3,52.5 29,61.2 46.6,43.6 43.5,40.8 29.3,55 	"/>
	<path fill="#fff" d="M83,19v16h22V19H83z M87,33h-2V21h2V33z M91,33h-2V21h2V33z M95,33h-2V21h2V33z M99,33h-2V21h2V33z M103,33
		h-2V21h2V33z"/>
	<path fill="#fff" d="M95,37v16h22V37H95z M99,51h-2V39h2V51z M103,51h-2V39h2V51z M107,51h-2V39h2V51z M111,51h-2V39h2V51z
		 M115,51h-2V39h2V51z"/>
	<path fill="#fff" d="M83,55v16h22V55H83z M87,69h-2V57h2V69z M91,69h-2V57h2V69z M95,69h-2V57h2V69z M99,69h-2V57h2V69z M103,69
		h-2V57h2V69z"/>
	<path fill="#fff" d="M107,55v16h22V55H107z M111,69h-2V57h2V69z M115,69h-2V57h2V69z M119,69h-2V57h2V69z M123,69h-2V57h2V69z
		 M127,69h-2V57h2V69z"/>
</g>
</svg>