<?xml version="1.0" encoding="utf-8"?>
<!DOCTYPE svg PUBLIC "-//W3C//DTD SVG 1.1//EN" "http://www.w3.org/Graphics/SVG/1.1/DTD/svg11.dtd">
<svg version="1.1" xmlns="http://www.w3.org/2000/svg" xmlns:xlink="http://www.w3.org/1999/xlink" x="0px" y="0px" viewBox="0 0 167 71.1" enable-background="new 0 0 167 71.1" xml:space="preserve">
<g>
	<g>
		<rect y="52" fill="#fff" width="1" height="3"/>
		<path fill="#fff" d="M166,52v1h-1v-1h-9v-2h1h1h2V4V0H9H7H6v50h3h1v2H2v1H1v1h1v1h163v-1h1v1h1v-3H166z M157,4v42h-3V4H157z
			 M152,4v42h-3V4H152z M147,4v42h-3V4H147z M142,4v42h-3V4H142z M137,4v42h-3V4H137z M132,4v42h-3V4H132z M127,4v42h-3V4H127z
			 M122,4v42h-3V4H122z M117,4v42h-3V4H117z M112,4v42h-3V4H112z M107,4v42h-3V4H107z M102,4v42h-3V4H102z M97,4v42h-3V4H97z M92,4
			v42h-3V4H92z M87,4v42h-3V4H87z M82,4v42h-3V4H82z M77,4v42h-3V4H77z M72,4v42h-3V4H72z M67,4v42h-3V4H67z M62,4v42h-3V4H62z
			 M57,4v42h-3V4H57z M52,4v42h-3V4H52z M47,4v42h-3V4H47z M42,4v42h-3V4H42z M37,4v42h-3V4H37z M32,4v42h-3V4H32z M27,4v42h-3V4H27
			z M22,4v42h-3V4H22z M17,4v42h-3V4H17z M9,46V4h3v42H9z M14,52v-2h24v2H14z M40,52v-2h16v2H40z M58,52v-2h50v2H58z M110,52v-2h16
			v2H110z M128,52v-2h24v2H128z"/>
	</g>
	<g>
		<polygon fill="#fff" points="33,57 37,57 37,59 34,59 34,66 42,66 42,59 39,59 39,57 43,57 43,55 33,55 		"/>
		<path fill="#fff" d="M25.2,56c-4.2,0-7.5,3.4-7.5,7.5c0,4.2,3.4,7.5,7.5,7.5s7.5-3.4,7.5-7.5C32.7,59.4,29.3,56,25.2,56z
			 M25.1,69.3c-3.2,0-5.8-2.6-5.8-5.9c0-3.2,2.6-5.9,5.8-5.9s5.8,2.6,5.8,5.9C30.9,66.7,28.3,69.3,25.1,69.3z"/>
		<path fill="#fff" d="M50.8,56c-4.2,0-7.5,3.4-7.5,7.5c0,4.2,3.4,7.5,7.5,7.5s7.5-3.4,7.5-7.5C58.4,59.4,55,56,50.8,56z
			 M50.8,69.3c-3.2,0-5.8-2.6-5.8-5.9c0-3.2,2.6-5.9,5.8-5.9s5.8,2.6,5.8,5.9C56.6,66.7,54,69.3,50.8,69.3z"/>
	</g>
	<g>
		<polygon fill="#fff" points="123,57 127,57 127,59 124,59 124,66 132,66 132,59 129,59 129,57 133,57 133,55 123,55 		"/>
		<path fill="#fff" d="M115.2,56c-4.2,0-7.5,3.4-7.5,7.5c0,4.2,3.4,7.5,7.5,7.5s7.5-3.4,7.5-7.5C122.7,59.4,119.3,56,115.2,56z
			 M115.1,69.3c-3.2,0-5.8-2.6-5.8-5.9c0-3.2,2.6-5.9,5.8-5.9s5.8,2.6,5.8,5.9C120.9,66.7,118.3,69.3,115.1,69.3z"/>
		<path fill="#fff" d="M140.8,56c-4.2,0-7.5,3.4-7.5,7.5c0,4.2,3.4,7.5,7.5,7.5s7.5-3.4,7.5-7.5C148.4,59.4,145,56,140.8,56z
			 M140.8,69.3c-3.2,0-5.8-2.6-5.8-5.9c0-3.2,2.6-5.9,5.8-5.9s5.8,2.6,5.8,5.9C146.6,66.7,144,69.3,140.8,69.3z"/>
	</g>
	<polygon fill="#fff" points="95,61 71,61 64,55 102,55 	"/>
</g>
</svg>
