<?xml version="1.0" encoding="utf-8"?>
<!DOCTYPE svg PUBLIC "-//W3C//DTD SVG 1.1//EN" "http://www.w3.org/Graphics/SVG/1.1/DTD/svg11.dtd">
<svg version="1.1" xmlns="http://www.w3.org/2000/svg" xmlns:xlink="http://www.w3.org/1999/xlink" x="0px" y="0px" viewBox="0 62.5 400 275" enable-background="new 0 62.5 400 275" xml:space="preserve">
<g>
	<rect y="62.5" fill="#FFFFFF" width="400" height="275"/>
	<rect x="225" y="62.5" fill="#ED2224" width="175" height="25"/>
	<rect x="225" y="112.5" fill="#ED2224" width="175" height="25"/>
	<rect x="225" y="162.5" fill="#ED2224" width="175" height="25"/>
	<rect x="225" y="212.5" fill="#ED2224" width="175" height="25"/>
	<rect y="262.5" fill="#ED2224" width="400" height="25"/>
	<rect y="312.5" fill="#ED2224" width="400" height="25"/>
	<rect y="62.5" fill="#3A53A4" width="25" height="175"/>
	<rect x="25" y="62.5" fill="#3A53A4" width="200" height="25"/>
	<rect x="200" y="87.5" fill="#3A53A4" width="25" height="150"/>
	<rect x="25" y="212.5" fill="#3A53A4" width="175" height="25"/>
	<rect x="50" y="87.5" fill="#3A53A4" width="25" height="125"/>
	<rect x="100" y="87.5" fill="#3A53A4" width="25" height="125"/>
	<rect x="150" y="87.5" fill="#3A53A4" width="25" height="125"/>
	<rect x="25" y="112.5" fill="#3A53A4" width="175" height="25"/>
	<rect x="25" y="162.5" fill="#3A53A4" width="175" height="25"/>
</g>
</svg>
